<svg xmlns="http://www.w3.org/2000/svg" viewBox="0 0 100 125"><path style="block-progression:tb;text-indent:0;text-transform:none" d="M29.219 14.875c-2.477 0-4.451.14-5.938.437-1.486.298-2.741.807-3.781 1.5-1.362.868-2.318 2.077-2.875 3.626-.557 1.548-.844 4.209-.844 8V37.5c0 3.79-.669 6.445-2.031 7.969-1.362 1.523-3.712 2.281-7.031 2.281-.174 0-.441-.006-.813-.031a13.26 13.26 0 0 0-.875-.031v4.718c.198 0 .504-.006.875-.031.372-.025.64-.062.813-.063 3.319.001 5.669.771 7.031 2.282s2.031 4.141 2.031 7.906v9.062c0 3.692.287 6.353.844 7.938s1.513 2.796 2.875 3.688c1.04.693 2.314 1.202 3.812 1.5 1.499.297 3.454.437 5.907.437h1.312V80.5h-1.437c-3.122 0-5.235-.598-6.313-1.75-1.077-1.152-1.625-3.559-1.625-7.25v-9c0-4.112-.516-7.028-1.594-8.75-1.077-1.722-3-2.944-5.75-3.688 2.75-.767 4.673-2.028 5.75-3.75 1.078-1.721 1.594-4.637 1.594-8.75v-8.968c0-3.716.56-6.18 1.625-7.344s3.097-1.75 6.094-1.75c.173 0 .441.038.813.062.371.025.645.032.843.032v-4.719h-1.312zm40.406 0V19.5h1.469c3.096 0 5.191.605 6.281 1.781C78.465 22.458 79 24.903 79 28.594v8.968c0 4.113.547 7.029 1.625 8.75 1.078 1.722 2.969 2.983 5.719 3.75-2.75.744-4.641 1.966-5.719 3.688S79 58.388 79 62.5v8.906c0 3.741-.547 6.23-1.625 7.406-1.078 1.177-3.09 1.75-6.063 1.75-.173 0-.44-.006-.812-.031s-.677-.031-.875-.031v4.625h1.531c2.527 0 4.52-.121 5.969-.406s2.659-.762 3.625-1.407c1.338-.891 2.267-2.114 2.812-3.687s.813-4.272.813-8.063v-9c0-3.765.688-6.401 2.063-7.937 1.374-1.536 3.749-2.312 7.093-2.313.174.001.441.038.813.063.371.025.645.031.844.031v-4.718c-.199 0-.473.006-.844.031-.372.025-.639.031-.813.031-3.344 0-5.719-.777-7.093-2.312-1.375-1.536-2.063-4.173-2.063-7.938v-9.062c0-3.766-.268-6.44-.813-8-.545-1.561-1.474-2.758-2.812-3.626-1.04-.668-2.333-1.159-3.844-1.468-1.511-.31-3.491-.469-5.968-.469h-1.313zM36.5 22.969c-4.279 0-7.781 3.564-7.781 7.843 0 3.442 2.26 6.354 5.375 7.376v23.593c-3.116 1.03-5.375 3.996-5.375 7.438 0 4.279 3.502 7.781 7.781 7.781s7.812-3.502 7.812-7.781c0-3.442-2.29-6.408-5.406-7.438v-.375c0-3.557 1.089-4.956 3.094-6.218 2.005-1.263 5.155-2.043 8.562-2.876 3.408-.832 7.098-1.742 10.157-4.031 2.779-2.079 4.783-5.441 5.125-10.062 3.144-1.004 5.468-3.944 5.468-7.407 0-4.279-3.533-7.843-7.812-7.843s-7.781 3.564-7.781 7.843c0 3.421 2.258 6.337 5.343 7.376-.253 3.289-1.448 4.957-3.218 6.281-2.004 1.499-5.064 2.37-8.406 3.187-3.343.817-6.943 1.544-10 3.469-.184.116-.354.248-.532.375V38.188c3.115-1.022 5.406-3.934 5.406-7.376 0-4.279-3.533-7.843-7.812-7.843zm0 4.812a3.017 3.017 0 0 1 3.031 3.031c0 1.686-1.346 2.969-3.031 2.969s-3-1.283-3-2.969c0-1.685 1.315-3.031 3-3.031zm27 0a3.017 3.017 0 0 1 3.031 3.031c0 1.686-1.346 2.969-3.031 2.969s-3-1.283-3-2.969c0-1.685 1.315-3.031 3-3.031zm-27 38.407a3.016 3.016 0 0 1 3.031 3.031c0 1.685-1.346 2.969-3.031 2.969s-3-1.284-3-2.969c0-1.686 1.315-3.031 3-3.031z" color="#000"/></svg>