<svg xmlns="http://www.w3.org/2000/svg" viewBox="0 0 100 125"><path d="M37.281 87.477c-3.868 0-7.015-3.185-7.015-7.099s3.147-7.099 7.015-7.099 7.015 3.185 7.015 7.099-3.147 7.099-7.015 7.099zm0-9.198c-1.111 0-2.015.941-2.015 2.099 0 1.158.904 2.099 2.015 2.099 1.111 0 2.015-.94 2.015-2.099 0-1.157-.904-2.099-2.015-2.099zm33 9.198c-3.868 0-7.016-3.185-7.016-7.099s3.146-7.099 7.016-7.099 7.015 3.185 7.015 7.099-3.148 7.099-7.015 7.099zm0-9.198c-1.111 0-2.016.941-2.016 2.099 0 1.158.903 2.099 2.016 2.099 1.111 0 2.015-.94 2.015-2.099 0-1.157-.903-2.099-2.015-2.099z"/><g clip-rule="evenodd"><path fill-rule="evenodd" d="M90.315 31.17c-4.142 8.374-8.319 16.73-12.395 25.135-.819 1.69-1.923 2.288-3.754 2.28-13.678-.052-27.355-.028-41.033-.027-1.373 0-1.382 0-1.695 1.359-.465 2.022-.92 4.048-1.371 6.074-.196.883-.188.888.74.909.32.007.64.001.959.001h50.272c.36 0 .721-.009 1.08.003 1.6.053 2.65 1.127 2.611 2.662-.038 1.529-1.009 2.473-2.616 2.502-1.159.021-2.319.005-3.479.005H27.562c-3.078 0-3.975-1.104-3.305-4.083.822-3.662 1.677-7.315 2.459-10.985a4.929 4.929 0 0 0-.023-2.101 2958.339 2958.339 0 0 0-5.381-22.227c-.167-.68-.485-1.349-.857-1.946-.994-1.594-2.077-3.131-3.078-4.721-.34-.539-.729-.759-1.364-.748-1.839.032-3.681-.037-5.518.027-1.33.046-2.35-.663-2.993-1.853 0-1.12.04-.381 0-1.5-.012-.417.498-2.045 2.873-2.045h7.46c1.037.398 2.127.71 2.824 1.678 1.259 1.75 2.576 3.464 3.743 5.274.546.848 1.119 1.128 2.115 1.127 20.097-.032 40.195-.011 60.292-.047 1.662-.003 2.876.44 3.506 2.047v1.2zm-6.848 2.01c-.361-.017-.599-.037-.836-.037-18.268-.001-36.536-.002-54.804 0-1.015 0-1.035.016-.808.95 1.47 6.046 2.947 12.092 4.429 18.135.283 1.154.3 1.156 1.517 1.156 13.151.002 26.303-.008 39.454.021.858.002 1.269-.305 1.63-1.044 2.696-5.526 5.436-11.03 8.157-16.543.42-.849.818-1.71 1.261-2.638z"/><path fill="none" d="M83.467 33.18c-.442.928-.841 1.789-1.26 2.639-2.722 5.513-5.461 11.018-8.157 16.543-.361.739-.771 1.046-1.63 1.044-13.151-.029-26.303-.02-39.454-.021-1.217 0-1.234-.002-1.517-1.156a9391.505 9391.505 0 0 1-4.429-18.135c-.227-.934-.208-.95.808-.95 18.268-.002 36.536-.002 54.804 0 .236-.001.473.019.835.036z"/></g></svg>