<svg xmlns="http://www.w3.org/2000/svg" viewBox="0 0 100 125"><path d="M41.6 79.7c-2.5 0-5.1-1-7-2.9l-15-15c-3.8-3.8-3.8-10.1 0-14l25.3-25.3c.4-.4 1.1-.4 1.5 0s.4 1.1 0 1.5L21.1 49.4c-3 3-3 7.9 0 10.9l15 15c3 3 7.9 3 10.9 0l31.8-31.8c3-3 3-7.9 0-10.9l-7.5-7.5c-3-3-7.9-3-10.9 0L40.8 44.8c-1.5 1.5-2.2 3.4-2.2 5.4 0 2.1.8 4 2.2 5.4 1.5 1.5 3.4 2.3 5.4 2.3 2.1 0 4-.8 5.4-2.3l13.1-13.1c.4-.4 1.1-.4 1.5 0 .4.4.4 1.1 0 1.5l-13 13.2c-1.9 1.9-4.3 2.9-7 2.9-2.6 0-5.1-1-7-2.9-3.8-3.8-3.8-10.1 0-14l19.6-19.6c3.8-3.8 10.1-3.8 14 0l7.5 7.5c3.8 3.8 3.8 10.1 0 14L48.5 76.8c-1.9 2-4.4 2.9-6.9 2.9z"/></svg>