<svg xmlns="http://www.w3.org/2000/svg" viewBox="0 0 100 125"><path d="M61.474 14.449a1.374 1.374 0 0 0-1.196.7l-16.676.62a1.374 1.374 0 0 0-1.026-.461 1.374 1.374 0 0 0-1.278.871L19.541 26.212a1.374 1.374 0 0 0-.527-.105 1.374 1.374 0 0 0-1.371 1.315l-6.188 6.623-1.239 1.173a1.374 1.374 0 0 0-.283-.03 1.374 1.374 0 0 0-1.374 1.375 1.374 1.374 0 0 0 .422.989l-3.3 11.815A1.374 1.374 0 0 0 5 50.552a1.374 1.374 0 0 0 1.121 1.35l4.951 12.024a1.374 1.374 0 0 0-.304.861 1.374 1.374 0 0 0 1.374 1.375 1.374 1.374 0 0 0 1.09-.54l11.662 2.66a1.374 1.374 0 0 0 1.36 1.193 1.374 1.374 0 0 0 1.103-.556l8.456 2.349a1.374 1.374 0 0 0 1.24.784 1.374 1.374 0 0 0 1.375-1.374 1.374 1.374 0 0 0-.009-.14l3.774-3.302a1.374 1.374 0 0 0 .628.153 1.374 1.374 0 0 0 1.121-.581l4.551 1.544a1.374 1.374 0 0 0 1.323 1 1.374 1.374 0 0 0 .293-.033l8.908 9.219a1.374 1.374 0 0 0-.022.24 1.374 1.374 0 0 0 1.374 1.374 1.374 1.374 0 0 0 .283-.031l4.277 3.718a1.374 1.374 0 0 0-.044.338 1.374 1.374 0 0 0 1.375 1.374 1.374 1.374 0 0 0 1.37-1.3l3.914-.843a1.374 1.374 0 0 0 1.097.548 1.374 1.374 0 0 0 1.374-1.375 1.374 1.374 0 0 0-1.374-1.374 1.374 1.374 0 0 0-.499.094l-2.405-5.079a1.374 1.374 0 0 0 .229-.758 1.374 1.374 0 0 0-.034-.296l1.55-2.325a1.374 1.374 0 0 0 .423.067 1.374 1.374 0 0 0 1.138-.605l4.956.37a1.374 1.374 0 0 0 1.269.85 1.374 1.374 0 0 0 1.374-1.375 1.374 1.374 0 0 0-.006-.122l2.782-4.413a1.374 1.374 0 0 0 .807-.448h2.616a1.374 1.374 0 0 0 1.262.835 1.374 1.374 0 0 0 1.375-1.374 1.374 1.374 0 0 0-.457-1.022l4.759-7.186A1.374 1.374 0 0 0 95 57.056a1.374 1.374 0 0 0-1.037-1.331L92.6 46.828a1.374 1.374 0 0 0 .681-1.185 1.374 1.374 0 0 0-1.374-1.375 1.374 1.374 0 0 0-.155.011L82.64 28.332a1.374 1.374 0 0 0 .211-.728 1.374 1.374 0 0 0-1.374-1.375 1.374 1.374 0 0 0-.697.192L62.815 15.53a1.374 1.374 0 0 0-1.341-1.08zm-1.326 1.736a1.374 1.374 0 0 0 1.16 1.001l2.07 9.13-19.442-9.45a1.374 1.374 0 0 0 .01-.078l16.203-.603zm2.455.422L79.35 26.76l-13.583.098a1.374 1.374 0 0 0-1.225-.751 1.374 1.374 0 0 0-.152.01l-2.086-9.2a1.374 1.374 0 0 0 .299-.31zm-21.258.686a1.374 1.374 0 0 0 .311.409l-7.13 11.047a1.374 1.374 0 0 0-.418-.065 1.374 1.374 0 0 0-1.219.742l-12.53-2.223a1.374 1.374 0 0 0-.06-.206l21.046-9.705zm2.117.49l18.163 8.827-14.576 1.6-3.587-10.428zm-.93.463l3.467 10.08-10.64 1.167a1.374 1.374 0 0 0-.037-.077l7.21-11.17zm20.423 9.256l-13.118 7.914a1.374 1.374 0 0 0-.369-.17l-2.075-6.037 15.562-1.707zm17.161.283a1.374 1.374 0 0 0 .314.707l-2.77 7.258-11.807-7.854a1.374 1.374 0 0 0 .003-.009l14.26-.102zm-59.943.432l12.622 2.24a1.374 1.374 0 0 0 .191.393L22.817 41.33a1.374 1.374 0 0 0-.121-.009 1.374 1.374 0 0 0-.259.026c-.076-.393-.146-.765-.25-1.285-.3-1.509-.698-3.473-1.097-5.422a2407.26 2407.26 0 0 0-1.25-6.064 1.374 1.374 0 0 0 .333-.361zm43.051.326L57.1 47.132a1.374 1.374 0 0 0-.384.158l-6.65-9.773a1.374 1.374 0 0 0 .388-.954 1.374 1.374 0 0 0-.034-.296l12.804-7.724zm1.964.15l12.094 8.045-3.626 9.496a1.374 1.374 0 0 0-.033 0 1.374 1.374 0 0 0-.496.093l-7.96-17.62a1.374 1.374 0 0 0 .021-.012zm-46.658.073a1.374 1.374 0 0 0 .313.077c.3 1.453.725 3.507 1.237 6.006.399 1.948.798 3.911 1.096 5.416.085.43.14.714.206 1.057l-10.095-4.997a1.374 1.374 0 0 0-.152-.427l1.052-1.126 6.343-6.006zm63.27.172l8.82 15.434-12.081-8.036 2.811-7.364a1.374 1.374 0 0 0 .127.01 1.374 1.374 0 0 0 .323-.04zm-17.637.05l8.175 18.096-13.624.908a1.374 1.374 0 0 0-.581-.702l6.03-18.301zm-17.82.336l2.075 6.035a1.374 1.374 0 0 0-.4.33L35.8 30.482l10.542-1.157zm-11.477 1.88l12.802 5.456-7.168 3.993a1.374 1.374 0 0 0-.87-.311 1.374 1.374 0 0 0-.097 0l-4.67-9.14a1.374 1.374 0 0 0 .003 0zm-1.033.253l4.775 9.343a1.374 1.374 0 0 0-.352.916 1.374 1.374 0 0 0 .29.844l-6.689 10.67a1.374 1.374 0 0 0-.08 0 1.374 1.374 0 0 0-.528.107l-7.52-9.731a1.374 1.374 0 0 0 .341-.905 1.374 1.374 0 0 0-.306-.864l10.07-10.377zm44.329 5.866l12.287 8.173-15.794 1.013 3.507-9.186zm-67.11.036l9.873 4.887-13.7 7.228a1.374 1.374 0 0 0-.438-.233l3.157-11.305a1.374 1.374 0 0 0 1.107-.577zm37.098.213a1.374 1.374 0 0 0 .93.365 1.374 1.374 0 0 0 .024 0l6.975 10.25a1.374 1.374 0 0 0-.03.28 1.374 1.374 0 0 0 .043.33l-4.687 7.13a1.374 1.374 0 0 0-.338.046L40.79 42.45a1.374 1.374 0 0 0 .214-.732 1.374 1.374 0 0 0-.011-.16l7.156-3.985zm-8.196 5.478L50.24 56.587a1.374 1.374 0 0 0-.029.046l-17.108-2.391a1.374 1.374 0 0 0-.31-.563l6.646-10.603a1.374 1.374 0 0 0 .192.015 1.374 1.374 0 0 0 .323-.04zm-18.598.134L16.344 54.13a1.374 1.374 0 0 0-.6.328l-7.996-3.95a1.374 1.374 0 0 0-.013-.138l13.62-7.186zm.693.963l2.53 16.969-6.665-5.048a1.374 1.374 0 0 0 .143-.608 1.374 1.374 0 0 0-.654-1.168l4.646-10.145zm1.1.391l7.362 9.527a1.374 1.374 0 0 0-.109.536 1.374 1.374 0 0 0 1.166 1.357l4.742 13.563a1.374 1.374 0 0 0-.295.257l-10.262-7.772-2.603-17.468zm67.628 1.97l-2.995 7.577-12.789-6.394a1.374 1.374 0 0 0 .004-.084 1.374 1.374 0 0 0-.003-.086l15.783-1.012zm.838.685l1.326 8.672a1.374 1.374 0 0 0-.524.538l-3.71-1.855 2.908-7.355zm-19.43.934L70.36 59.8 58.67 49.043a1.374 1.374 0 0 0 .008-.014l13.508-.901zm.926.754a1.374 1.374 0 0 0 .512.1 1.374 1.374 0 0 0 .398-.06l7.487 9.896-9.744 1.555a1.374 1.374 0 0 0-.408-.277l1.755-11.213zm2.303.172L87.4 55.047l-1.194 3.02-3.546.566-7.247-9.58zm-17.498.696l11.755 10.82a1.374 1.374 0 0 0-.245.782 1.374 1.374 0 0 0 .002.042l-9.37 5.682a1.374 1.374 0 0 0-.584-.307l-1.859-16.943a1.374 1.374 0 0 0 .301-.077zm-1.328.169l1.81 16.502-5.833-8.374a1.374 1.374 0 0 0 .22-.745 1.374 1.374 0 0 0-.408-.976l4.21-6.407zM7.386 51.48l7.926 3.914a1.374 1.374 0 0 0-.004.066 1.374 1.374 0 0 0 .332.894l-3.578 7.06a1.374 1.374 0 0 0-.081.01L7.148 51.689a1.374 1.374 0 0 0 .238-.207zm25.594 3.785l16.947 2.368-6.627 7.094a1.374 1.374 0 0 0-.479-.088 1.374 1.374 0 0 0-.907.345l-8.937-9.715a1.374 1.374 0 0 0 .003 0zm55.346.245l3.365 1.682-4.3.686.935-2.368zm-55.39 1.235L41.446 66a1.374 1.374 0 0 0 0 .014 1.374 1.374 0 0 0 .074.44l-3.605 3.155a1.374 1.374 0 0 0-.58-.277l-4.4-12.587zm-15.815.016l7.675 5.813.657 4.412a1.374 1.374 0 0 0-.302.297l-11.645-2.656a1.374 1.374 0 0 0-.46-.874l3.51-6.925a1.374 1.374 0 0 0 .127.01 1.374 1.374 0 0 0 .438-.074zm75.584 1.313a1.374 1.374 0 0 0 .042.04l-4.73 7.143a1.374 1.374 0 0 0-.304.054l-2.142-2.831 1.379-3.487 5.755-.918zm-42.223.476l-1.342 8.233a1.374 1.374 0 0 0-.522.522l-4.44-1.506a1.374 1.374 0 0 0-.117-.376l6.421-6.873zm1.24.089l6.117 8.781-6.686.248a1.374 1.374 0 0 0-.948-1.008l1.302-7.988a1.374 1.374 0 0 0 .214-.033zm34.045.542l-.924 2.336-1.477-1.952 2.4-.384zm-3.554.568l2.186 2.89-.901 2.281a1.374 1.374 0 0 0-.303-.035 1.374 1.374 0 0 0-1.044.481l-9.131-4.15 9.193-1.467zm-9.79 2.328l9.4 4.273a1.374 1.374 0 0 0 .542 1.003l-2.313 3.669a1.374 1.374 0 0 0-.784-.246 1.374 1.374 0 0 0-.216.018l-6.628-8.717zm-2.572.265a1.374 1.374 0 0 0 .57.329l.703 7.736a1.374 1.374 0 0 0-.594 1.13 1.374 1.374 0 0 0 .158.637l-1.402 2.104a1.374 1.374 0 0 0-.694-.19 1.374 1.374 0 0 0-.775.242l-7.383-5.764a1.374 1.374 0 0 0 .083-.466 1.374 1.374 0 0 0-.004-.096l9.338-5.661zm1.631.2l6.684 8.79a1.374 1.374 0 0 0-.174.31l-4.736-.354a1.374 1.374 0 0 0-1.117-1.105l-.693-7.62a1.374 1.374 0 0 0 .036-.021zm-45.512.922l8.34 6.316-6.695-1.86a1.374 1.374 0 0 0-1.156-1.177l-.489-3.28zm59.158.137l1.78 2.352a1.374 1.374 0 0 0-.087.184h-2.258a1.374 1.374 0 0 0-.2-.6l.765-1.936zm-27.313 4.852a1.374 1.374 0 0 0 1.135 1.007l.526 8.068-8.508-8.804a1.374 1.374 0 0 0 .012-.019l6.835-.253zm2.172 1.073l7.258 5.664a1.374 1.374 0 0 0-.028.273 1.374 1.374 0 0 0 .004.098l-5.83 2.299a1.374 1.374 0 0 0-.89-.451l-.514-7.884zm7.692 6.963a1.374 1.374 0 0 0 .161.124l-.941 2.51a1.374 1.374 0 0 0-1.02.573l-4.146-.754a1.374 1.374 0 0 0 .008-.112l5.937-2.34zm1.194.318l2.15 4.537-2.66-.983a1.374 1.374 0 0 0-.483-.919l.988-2.634a1.374 1.374 0 0 0 .006 0zm-6.708 3.262l3.473.631a1.374 1.374 0 0 0 .537.895l-.159 1.229a1.374 1.374 0 0 0-.474.182l-3.377-2.937zm5.904 1.283l2.992 1.105-3.77.813a1.374 1.374 0 0 0-.263-.233l.153-1.182a1.374 1.374 0 0 0 .888-.503z" stroke-width="10" stroke-linecap="round" stroke-linejoin="round"/></svg>