<svg xmlns="http://www.w3.org/2000/svg" viewBox="2.125 73.247 100 105.63000000000001"><path d="M85.297 95.887l-3.874-22.64L2.125 87.17l11.622 66.223 7.87-1.332v5.69h80.508V95.887H85.297zm-63.68 49.515l-2.542.484-9.443-53.39 66.465-11.744 2.664 15.134H21.617v49.516zm73.971 5.811H28.154v-48.789h67.434v48.789z"/><path d="M32.512 106.782v36.198l13.681-9.079 8.474 5.326 20.581-22.639 2.664 1.089 13.317 15.376v-26.271H32.512zm13.075 15.617c-3.147 0-5.811-2.663-5.811-5.811s2.664-5.812 5.811-5.812c3.148 0 5.811 2.663 5.811 5.812 0 3.148-2.663 5.811-5.811 5.811z"/></svg>