<svg xmlns="http://www.w3.org/2000/svg" viewBox="0 0 100 125"><path d="M87.8 5.9h-52c-5.8 0-10.4 4.7-10.4 10.4v31.5c0 5.8 4.7 10.4 10.4 10.4h35.7L83.3 70c.7.7 1.7 1.2 2.8 1.2 1 0 1.9-.4 2.7-1.1.8-.7 1.2-1.8 1.2-2.9v-9.3c4.7-1 8.3-5.2 8.3-10.2V16.4c0-5.8-4.7-10.5-10.5-10.5zM76.1 43.4l-2.5 2.5c-.8.8-1.7 1.2-2.8 1.3-1.7.1-3.4-.3-5-.9-3.4-1.2-6.2-3.1-8.9-5.4-3.7-3.1-6.6-6.7-8.6-11-.9-1.9-1.7-3.9-1.8-6-.1-1.5.3-2.8 1.5-3.9.8-.7 1.5-1.5 2.3-2.2 1.1-1.1 2.5-1.1 3.6 0l4 4c1.1 1.1 1.1 2.4 0 3.5l-2.5 2.5c-.2.2-.3.4-.1.7.3.5.6 1.1.9 1.6 1.5 2.4 3.4 4.4 5.6 6.2 1.1.9 2.2 1.7 3.6 2.2.3.1.4.1.6-.1.8-.9 1.6-1.7 2.4-2.5 1.1-1.1 2.5-1.1 3.6 0l2 2c.7.7 1.4 1.3 2 2 1.2 1 1.2 2.4.1 3.5zM1.7 70.7V39.1c0-5.8 4.7-10.4 10.4-10.4h6.3V36h-6.3C10.4 36 9 37.4 9 39.1v31.5c0 1.7 1.4 3.2 3.2 3.2h5.2V82l8.2-8.2h38.7c1.7 0 3.2-1.4 3.2-3.2v-5.4h1.2l6 6c-.3 5.5-4.9 9.8-10.4 9.8H28.5L16.7 92.9c-.7.8-1.7 1.2-2.7 1.2-2.2 0-3.9-1.8-3.9-3.9v-9.3c-4.8-1-8.4-5.2-8.4-10.2z"/></svg>