<svg xmlns="http://www.w3.org/2000/svg" viewBox="0 0 100 125"><path style="text-indent:0;text-transform:none;block-progression:tb" d="M47.325 9C25.899 9 8.5 26.508 8.5 48.046c0 21.539 17.4 38.984 38.825 38.984 8.09 0 15.616-2.496 21.838-6.753a15.74 15.74 0 0 1-4.2.594c-.196 0-.395-.024-.59-.03a36.352 36.352 0 0 1-9.738 3.47c1.542-1.195 2.968-2.754 4.293-4.628-.685-.281-1.326-.629-1.96-1-2.5 3.154-5.446 5.101-8.648 5.44V68.054h1.027a16.144 16.144 0 0 1-.28-2h-.747V49.015c12.296-.017 24.36 0 35.807 0a36.985 36.985 0 0 1-3.329 14.443c.041.467.094.928.094 1.406 0 1.17-.136 2.309-.374 3.408a38.945 38.945 0 0 0 5.631-20.227C86.15 26.508 68.75 9 47.325 9zm-7.311 2.72c-4.11 3.183-7.558 8.97-9.8 16.318H16.34c5.284-8.28 13.755-14.305 23.674-16.318zm14.621 0c9.928 2.006 18.415 8.036 23.706 16.318H64.435c-2.242-7.348-5.69-13.135-9.8-16.318zm-8.306.219v16.1H32.361c2.974-9.225 7.993-15.466 13.968-16.1zm1.991 0c5.978.634 11.04 6.875 14.03 16.1H48.32zm-33.163 18.1h14.529c-1.357 5.104-2.161 10.864-2.24 16.975H10.553c.17-6.145 1.81-11.926 4.604-16.975zm16.613 0h14.56v16.975H29.467c.083-6.177.901-11.947 2.302-16.975zm16.55 0h14.622c1.408 5.026 2.218 10.8 2.302 16.975H48.32zm16.644 0h14.559c2.8 5.055 4.438 10.82 4.604 16.975H67.204c-.08-6.111-.884-11.87-2.24-16.975zm-54.41 18.976h16.892c.079 6.136.873 11.92 2.24 17.038H15.157c-2.811-5.062-4.444-10.86-4.604-17.038zm18.914 0h16.861v17.038H31.77c-1.406-5.038-2.223-10.834-2.301-17.038zm35.496.844c-8.232 0-14.933 6.728-14.933 15.006s6.7 15.006 14.933 15.006c3.894 0 7.418-1.541 10.08-4.002L90.1 91l1.4-1.438-15.057-15.13a14.96 14.96 0 0 0 3.453-9.567c0-8.278-6.7-15.006-14.932-15.006zm0 2.001c7.156 0 12.91 5.809 12.91 13.005 0 7.197-5.754 13.005-12.91 13.005-7.156 0-12.942-5.808-12.942-13.005 0-7.196 5.786-13.005 12.942-13.005zM16.37 68.054h13.875c2.242 7.316 5.671 13.083 9.768 16.256-9.905-2.007-18.357-8.01-23.643-16.256zm15.99 0h13.968v16.068c-5.97-.631-10.993-6.875-13.968-16.068z" overflow="visible" color="#000"/></svg>