<svg xmlns="http://www.w3.org/2000/svg" viewBox="0 0 64 80"><path d="M58.342 50.984c1.516 1.534 2.975 2.991 4.411 4.469 1.696 1.745 1.158 4.318-1.061 5.115-1.272.457-2.312.019-3.24-.856-1.495-1.411-2.997-2.816-4.591-4.312-1.548 1.56-2.995 3.022-4.448 4.48-.899.902-1.944 1.358-3.22.942-2.189-.714-2.842-3.241-1.249-5.002 1.092-1.207 2.266-2.342 3.444-3.466.346-.33 1.072-.985 1.019-1.037-1.77-1.739-3.107-3.027-4.51-4.445-1.346-1.359-1.391-3.247-.151-4.463 1.234-1.211 2.958-1.224 4.359.135 1.478 1.434 2.832 2.997 4.344 4.614 1.86-1.86 3.337-3.414 4.898-4.878 1.891-1.774 4.48-1.017 5.14 1.465.319 1.197-.229 2.134-1.029 2.953-1.322 1.354-2.658 2.696-3.984 4.046-.059.059-.085.152-.132.24zM17.136 12.022c1.516 1.534 2.975 2.991 4.411 4.469 1.696 1.745 1.158 4.318-1.061 5.115-1.272.457-2.312.019-3.24-.856-1.495-1.411-2.997-2.816-4.591-4.312-1.548 1.56-2.995 3.022-4.448 4.48-.899.902-1.944 1.358-3.22.942-2.189-.714-2.842-3.241-1.249-5.002 1.092-1.207 2.266-2.342 3.444-3.466.346-.33 1.072-.985 1.019-1.037-1.77-1.739-3.107-3.027-4.51-4.445C2.345 6.551 2.3 4.663 3.54 3.447c1.234-1.211 2.958-1.224 4.359.135 1.478 1.434 2.832 2.997 4.344 4.614 1.86-1.86 3.337-3.414 4.898-4.878 1.891-1.774 4.48-1.017 5.14 1.465.319 1.197-.229 2.134-1.029 2.953-1.322 1.354-2.658 2.696-3.984 4.046-.06.06-.085.152-.132.24zm40.272 4.312l-4.461-1.532c-.745 4.769-2.481 8.714-5.29 11.972a23.635 23.635 0 0 1-9.163 6.572c-3.033 1.23-6.072 2.194-8.907 3.049-2.398.714-5.149 1.689-7.411 3.476-.016.01-.026.021-.042.031a15.056 15.056 0 0 0-5.931-3.268c.995-1.011 2.153-1.944 3.45-2.799 2.168-1.433 4.67-2.543 7.636-3.398.13-.036.25-.073.38-.104.104-.026.208-.052.318-.083l.125-.036c.506-.136.975-.261 1.433-.391 3.169-.917 5.665-1.887 7.844-3.059 4.946-2.679 8-6.692 9.111-11.977l-4.503 1.548c-1.001.219-1.788-.855-1.272-1.741L48.048 1.98c.74-1.267 2.57-1.267 3.31 0l7.323 12.613c.515.886-.272 1.96-1.273 1.741zM12.075 62.97C5.553 62.97.248 57.664.248 51.143s5.306-11.827 11.827-11.827 11.827 5.306 11.827 11.827S18.597 62.97 12.075 62.97zm0-18c-3.404 0-6.173 2.769-6.173 6.173s2.769 6.173 6.173 6.173 6.172-2.769 6.172-6.173-2.768-6.173-6.172-6.173z"/></svg>