<svg xmlns="http://www.w3.org/2000/svg" version="1" viewBox="0 0 100 125"><path d="M86.9 15.2H13.1c-4.5 0-8.1 3.6-8.1 8.1v53.3c0 4.5 3.6 8.1 8.1 8.1h73.8c4.5 0 8.1-3.6 8.1-8.1V23.3c0-4.4-3.6-8.1-8.1-8.1zm4.3 61.5c0 2.4-1.9 4.3-4.3 4.3H13.1c-2.4 0-4.3-1.9-4.3-4.3V33.8h82.4v42.9zm0-46.7H8.8v-6.7c0-2.4 1.9-4.3 4.3-4.3h73.8c2.4 0 4.3 1.9 4.3 4.3V30z"/><path d="M50 27.1h34.3c.4 0 .7-.3.7-.7V24c0-.4-.3-.7-.7-.7H50c-.4 0-.7.3-.7.7v2.4c0 .4.3.7.7.7z"/><circle cx="15.2" cy="25.2" r="1.9"/><circle cx="21.4" cy="25.2" r="1.9"/><circle cx="28.1" cy="25.2" r="1.9"/><path d="M37.8 64.7L30 56.9l7-7c.7-.7.7-1.9 0-2.7-.7-.7-1.9-.7-2.7 0l-8.1 8.2c-.9.9-.9 2.2 0 3.1l8.9 8.9c.7.7 1.9.7 2.7 0 .8-.8.8-2 0-2.7zm26.6 2.7l8.9-8.9c.9-.9.9-2.2 0-3.1l-8.2-8.2c-.7-.7-1.9-.7-2.7 0-.7.7-.7 1.9 0 2.7l7 7-7.8 7.8c-.7.7-.7 1.9 0 2.7.8.7 2 .7 2.8 0zm-7.1-21.7c-.9-.5-2.1-.3-2.6.6l-12.2 20c-.5.9-.3 2.1.6 2.6.9.5 2.1.3 2.6-.6l12.1-19.9c.7-1 .4-2.2-.5-2.7z"/></svg>