<svg xmlns="http://www.w3.org/2000/svg" viewBox="0 0 100 125"><path style="text-indent:0;text-align:start;line-height:normal;text-transform:none;block-progression:tb;marker:none;-inkscape-font-specification:Sans" d="M7.688 15A3 3 0 0 0 5 18v49a3 3 0 0 0 3 3h27c3.8 0 6.2 1.185 7.344 3.375a3 3 0 0 0 5.312 0C48.8 71.185 51.201 70 55 70h4.281C60.718 78.49 68.116 85 77 85c9.906 0 18-8.094 18-18 0-7.033-4.088-13.136-10-16.094V18a3 3 0 0 0-3-3H55c-3.403 0-6.511 1.49-8.875 3.625-.455.411-.722.972-1.125 1.438-.403-.466-.67-1.027-1.125-1.438C41.511 16.491 38.403 15 35 15H8a3 3 0 0 0-.313 0zM11 21h24c1.555 0 3.447.801 4.844 2.063C41.24 24.323 42 25.931 42 27v38.469C39.884 64.486 37.479 64 35 64H11V21zm44 0h24v28.125A18.115 18.115 0 0 0 77 49c-8.884 0-16.282 6.51-17.719 15H55c-2.479 0-4.884.486-7 1.469V27c0-1.068.76-2.676 2.156-3.938C51.553 21.802 53.446 21 55 21zm22 34c6.663 0 12 5.337 12 12s-5.337 12-12 12-12-5.337-12-12 5.337-12 12-12zm0 3a3 3 0 1 0 0 6 3 3 0 0 0 0-6zm-.031 7.938A3 3 0 0 0 74 69v4a3 3 0 1 0 6 0v-4a3 3 0 0 0-3.031-3.063z" font-weight="400" color="#000" overflow="visible" font-family="Sans"/></svg>