<svg xmlns="http://www.w3.org/2000/svg" viewBox="0 0 24 30"><path d="M10.549 16.638l-1.755-1.192a.499.499 0 0 0-.694.132l-1.192 1.754a.5.5 0 0 0 .507.773l2.947-.563a.501.501 0 0 0 .187-.904z"/><path d="M10.462 2.108a.5.5 0 0 0-.255-.322 7.014 7.014 0 0 0-4.508-.661 6.956 6.956 0 0 0-4.477 2.942A6.952 6.952 0 0 0 .137 9.314c.684 3.584 5.096 7.089 7.889 7.089.202 0 .396-.018.581-.053.305-.059.617-.175.956-.356a.499.499 0 0 0 .197-.689 1.489 1.489 0 0 1-.197-.913 1.49 1.49 0 0 1 .526-.949.498.498 0 0 0 .122-.603c-.609-1.217-.889-2.463-.98-2.942-.49-2.558-.208-5.035.775-6.795.096-.171.207-.331.317-.491l.067-.098a.503.503 0 0 0 .072-.406zm-4.2 1.964a4.006 4.006 0 0 0-3.179 4.679.5.5 0 0 1-.982.188A5.005 5.005 0 0 1 6.074 3.09a.5.5 0 1 1 .188.982zm7.312 9.779a.501.501 0 0 0-.618-.344l-2.041.579a.5.5 0 0 0-.107.918l2.619 1.462a.504.504 0 0 0 .554-.045.5.5 0 0 0 .172-.528l-.579-2.042z"/><path d="M20.402.889A7 7 0 0 0 16.996 0a7.007 7.007 0 0 0-6.117 3.59c-.857 1.536-1.106 3.824-.666 6.119.437 2.274 1.422 4.037 2.636 4.714.536.299 1.222.451 2.039.451 2.766 0 6.727-1.793 8.216-4.461 1.88-3.371.668-7.643-2.702-9.524zm-.782 2.426a.503.503 0 0 1-.681.193 3.973 3.973 0 0 0-3.04-.355 3.973 3.973 0 0 0-2.401 1.899.5.5 0 0 1-.873-.487 4.968 4.968 0 0 1 3.002-2.374 4.97 4.97 0 0 1 3.801.444.5.5 0 0 1 .192.68zM10.492 24a.5.5 0 0 1-.485-.379l-1.5-6a.5.5 0 0 1 .97-.242l1.015 4.06 1.515-6.06a.496.496 0 0 1 .606-.364.499.499 0 0 1 .364.606l-2 8a.499.499 0 0 1-.485.379z"/></svg>