<svg xmlns="http://www.w3.org/2000/svg" xmlns:xlink="http://www.w3.org/1999/xlink" version="1.1" x="0px" y="0px" viewBox="0 0 64 80" enable-background="new 0 0 64 64" xml:space="preserve"><g><path fill="#000000" d="M58.005,46.409c0.034-0.269,0.049-0.499,0.049-0.721V15.406c0-2.649-2.017-4.804-4.497-4.804H10.433   c-2.469,0-4.477,2.155-4.477,4.804v30.281c0,0.273,0.013,0.502,0.04,0.721H1.084v0.751c0,2.649,2.008,6.238,4.477,6.238h52.877   c2.469,0,4.477-3.589,4.477-6.238v-0.751H58.005z M53.824,14.714v31.635H37.603l-0.025,0.211c-0.152,1.294-1.262,2.27-2.583,2.27   h-5.891c-1.312,0-2.422-0.976-2.582-2.271l-0.026-0.21h-16.31V14.714H53.824z"/><path fill="#000000" d="M49.233,35.782c-0.264,1.989-1.538,3.155-3.391,3.739c-0.443,0.141-0.909,0.209-1.43,0.327v2.304h-1.921   v-2.283c-3.829-0.833-5.494-2.608-5.199-5.531h3.343c0.028,0.204,0.06,0.403,0.083,0.602c0.141,1.254,0.982,2.077,2.233,2.17   c0.244,0.02,0.488,0.02,0.733,0.01c1.045-0.035,1.737-0.514,2.004-1.375c0.315-1.005,0.043-2.087-0.78-2.621   c-0.639-0.415-1.375-0.685-2.059-1.03c-1.068-0.531-2.223-0.944-3.18-1.629c-2.795-2.004-2.394-6.425,0.687-7.971   c0.695-0.347,1.485-0.514,2.341-0.801v-2.399h1.908v2.528c1.662,0.307,3.084,0.959,3.965,2.455c0.476,0.806,0.73,1.966,0.629,2.9   h-3.366c-0.086-0.438-0.126-0.864-0.259-1.261c-0.317-0.959-1.083-1.44-2.165-1.422c-1.047,0.018-1.652,0.41-1.934,1.264   c-0.342,1.035-0.118,2.117,0.682,2.639c0.687,0.451,1.465,0.765,2.21,1.13c0.944,0.463,1.939,0.841,2.83,1.39   C49.012,32.03,49.5,33.795,49.233,35.782z"/><path fill="#000000" d="M29.773,39.787c-0.9,0-1.63-0.73-1.63-1.63v-8.352c0-0.9,0.73-1.63,1.63-1.63c0.9,0,1.63,0.73,1.63,1.63   v8.352C31.403,39.058,30.673,39.787,29.773,39.787z"/><path fill="#000000" d="M23.051,39.787c-0.9,0-1.63-0.73-1.63-1.63v-14.87c0-0.9,0.73-1.63,1.63-1.63s1.63,0.73,1.63,1.63v14.87   C24.68,39.058,23.951,39.787,23.051,39.787z"/><path fill="#000000" d="M16.329,39.787c-0.9,0-1.63-0.73-1.63-1.63V32.25c0-0.9,0.73-1.63,1.63-1.63c0.9,0,1.63,0.73,1.63,1.63   v5.907C17.958,39.058,17.229,39.787,16.329,39.787z"/></g></svg>
