<svg xmlns="http://www.w3.org/2000/svg" viewBox="0 0 64 80"><path d="M56 15H12a1 1 0 0 0-1 1v30a1.001 1.001 0 0 1-2 0V20a1 1 0 0 0-2 0v26a3.004 3.004 0 0 0 2.999 3H56a1 1 0 0 0 1-1V16a1 1 0 0 0-1-1zm-1 32H12.829c.11-.312.171-.649.171-1V17h42v30z"/><path d="M16 29h36a1 1 0 0 0 1-1v-8a1 1 0 0 0-1-1H16a1 1 0 0 0-1 1v8a1 1 0 0 0 1 1zm1-8h34v6H17v-6zm-1 12h36a1 1 0 1 0 0-2H16a1 1 0 0 0 0 2zm0 4h8a1 1 0 1 0 0-2h-8a1 1 0 1 0 0 2zm22-2h-8a1 1 0 1 0 0 2h8a1 1 0 1 0 0-2zm14 0h-8a1 1 0 1 0 0 2h8a1 1 0 1 0 0-2zm-36 6h8a1 1 0 1 0 0-2h-8a1 1 0 1 0 0 2zm22-2h-8a1 1 0 1 0 0 2h8a1 1 0 1 0 0-2zm14 0h-8a1 1 0 1 0 0 2h8a1 1 0 1 0 0-2zm-36 6h8a1 1 0 1 0 0-2h-8a1 1 0 1 0 0 2zm22-2h-8a1 1 0 1 0 0 2h8a1 1 0 1 0 0-2zm14 0h-8a1 1 0 1 0 0 2h8a1 1 0 1 0 0-2z"/></svg>