<svg xmlns="http://www.w3.org/2000/svg" viewBox="0 0 64 80"><path d="M58.005 46.409c.034-.269.049-.499.049-.721V15.406c0-2.649-2.017-4.804-4.497-4.804H10.433c-2.469 0-4.477 2.155-4.477 4.804v30.281c0 .273.013.502.04.721H1.084v.751c0 2.649 2.008 6.238 4.477 6.238h52.877c2.469 0 4.477-3.589 4.477-6.238v-.751h-4.91zm-4.181-31.695v31.635H37.603l-.025.211c-.152 1.294-1.262 2.27-2.583 2.27h-5.891a2.599 2.599 0 0 1-2.582-2.271l-.026-.21h-16.31V14.714h43.638z"/><path d="M49.233 35.782c-.264 1.989-1.538 3.155-3.391 3.739-.443.141-.909.209-1.43.327v2.304h-1.921v-2.283c-3.829-.833-5.494-2.608-5.199-5.531h3.343c.028.204.06.403.083.602.141 1.254.982 2.077 2.233 2.17.244.02.488.02.733.01 1.045-.035 1.737-.514 2.004-1.375.315-1.005.043-2.087-.78-2.621-.639-.415-1.375-.685-2.059-1.03-1.068-.531-2.223-.944-3.18-1.629-2.795-2.004-2.394-6.425.687-7.971.695-.347 1.485-.514 2.341-.801v-2.399h1.908v2.528c1.662.307 3.084.959 3.965 2.455.476.806.73 1.966.629 2.9h-3.366c-.086-.438-.126-.864-.259-1.261-.317-.959-1.083-1.44-2.165-1.422-1.047.018-1.652.41-1.934 1.264-.342 1.035-.118 2.117.682 2.639.687.451 1.465.765 2.21 1.13.944.463 1.939.841 2.83 1.39 1.815 1.113 2.303 2.878 2.036 4.865zm-19.46 4.005c-.9 0-1.63-.73-1.63-1.63v-8.352a1.63 1.63 0 0 1 3.26 0v8.352c0 .901-.73 1.63-1.63 1.63zm-6.722 0c-.9 0-1.63-.73-1.63-1.63v-14.87a1.63 1.63 0 0 1 3.26 0v14.87a1.63 1.63 0 0 1-1.63 1.63zm-6.722 0c-.9 0-1.63-.73-1.63-1.63V32.25a1.63 1.63 0 0 1 3.26 0v5.907a1.63 1.63 0 0 1-1.63 1.63z"/></svg>