<svg xmlns="http://www.w3.org/2000/svg" viewBox="0 0 100 125"><path d="M37.5 56.5c6.065 0 11-4.935 11-11 0-.146-.017-.289-.021-.434a3.996 3.996 0 0 1 4.043 0c-.005.145-.022.288-.022.434 0 6.065 4.935 11 11 11s11-4.935 11-11-4.935-11-11-11c-4.506 0-8.383 2.726-10.081 6.612a7.946 7.946 0 0 0-5.835.006C45.887 37.229 42.008 34.5 37.5 34.5c-6.065 0-11 4.935-11 11s4.935 11 11 11zm26-18c3.859 0 7 3.141 7 7s-3.141 7-7 7-7-3.141-7-7 3.141-7 7-7zm-26 0c3.859 0 7 3.141 7 7s-3.141 7-7 7-7-3.141-7-7 3.141-7 7-7zm53-18h-.284c-.895-3.44-3.999-6-7.716-6h-26a7.984 7.984 0 0 0-6 2.714 7.984 7.984 0 0 0-6-2.714h-26c-3.717 0-6.821 2.56-7.716 6H10.5c-4.785 0-8 3.215-8 8v48c0 4.411 3.589 8 8 8h32c.267.072.887.646 1.352 1.03 1.513 1.253 3.585 2.97 6.648 2.97s5.136-1.717 6.648-2.97c.465-.385 1.166-.966 1.352-1.03h32c4.411 0 8-3.589 8-8v-48c0-4.785-3.215-8-8-8zm-76 2.01l.002-.01-.001-.007A4.002 4.002 0 0 1 18.5 18.5h26c2.206 0 4 1.794 4 4v10a2 2 0 0 0 4 0v-10c0-2.206 1.794-4 4-4h26c2.206 0 4 1.794 4 4v46c0 2.206-1.794 4-4 4h-26c-1.466 0-2.817.433-4 1.124V58.5a2 2 0 0 0-4 0v15.124c-1.183-.691-2.534-1.124-4-1.124h-26c-2.206 0-4-1.794-4-4V22.51zm80 53.99c0 2.206-1.794 4-4 4h-32c-1.549 0-2.746.991-3.903 1.95-1.217 1.008-2.475 2.05-4.097 2.05s-2.88-1.042-4.097-2.05c-1.157-.959-2.354-1.95-3.903-1.95h-32c-2.206 0-4-1.794-4-4v-48c0-1.203.39-4 4-4v44c0 4.411 3.589 8 8 8h26c2.206 0 4 1.794 4 4a2 2 0 0 0 4 0c0-2.206 1.794-4 4-4h26c4.411 0 8-3.589 8-8v-44c3.61 0 4 2.797 4 4v48z"/></svg>