<svg xmlns="http://www.w3.org/2000/svg" viewBox="0 0 100 125"><path d="M94.751 49.152c0-24.675-20.075-44.75-44.751-44.75S5.249 24.478 5.249 49.152v12.275a19.003 19.003 0 0 0-2.5 9.42c0 9.899 7.563 18.066 17.212 19.027.945 3.291 3.947 5.723 7.539 5.723 4.341 0 7.876-3.535 7.876-7.875v-33.75c0-4.342-3.535-7.877-7.876-7.877-3.592 0-6.594 2.432-7.539 5.723-.63.064-1.252.159-1.865.283v-2.949c0-17.592 14.312-31.904 31.904-31.904S81.904 31.56 81.904 49.152v2.949a19.182 19.182 0 0 0-1.865-.283c-.945-3.291-3.947-5.723-7.539-5.723-4.341 0-7.876 3.535-7.876 7.877v33.75c0 4.34 3.535 7.875 7.876 7.875 3.592 0 6.594-2.432 7.539-5.723 9.648-.961 17.212-9.128 17.212-19.027 0-3.426-.918-6.637-2.5-9.42V49.152zM92.5 73.481a14.419 14.419 0 0 1-.879 2.991 14.69 14.69 0 0 1-1.191 2.25 14.638 14.638 0 0 1-10.054 6.559V56.414c.518.08 1.028.186 1.528.322a14.6 14.6 0 0 1 4.497 2.065 14.734 14.734 0 0 1 3.848 3.877 14.532 14.532 0 0 1 2.251 5.535c.156.857.249 1.733.249 2.635 0 .9-.093 1.777-.249 2.633zM69.126 87.723v-33.75c0-1.861 1.514-3.375 3.374-3.375s3.374 1.514 3.374 3.375v33.75c0 1.859-1.514 3.373-3.374 3.373s-3.374-1.514-3.374-3.373zm21.123-31.651a18.942 18.942 0 0 0-3.848-2.439v-4.48c0-20.072-16.328-36.4-36.401-36.4s-36.401 16.328-36.401 36.4v4.48a18.986 18.986 0 0 0-3.848 2.439v-6.92C9.751 26.961 27.808 8.904 50 8.904s40.249 18.057 40.249 40.248v6.92zm-59.375-2.099v33.75c0 1.859-1.514 3.373-3.374 3.373s-3.374-1.514-3.374-3.373v-33.75c0-1.861 1.514-3.375 3.374-3.375s3.374 1.513 3.374 3.375zm-11.25 31.308A14.632 14.632 0 0 1 9.57 78.722a14.69 14.69 0 0 1-1.191-2.25 14.4 14.4 0 0 1-.879-2.991 14.654 14.654 0 0 1-.249-2.634c0-.901.093-1.777.249-2.635a14.526 14.526 0 0 1 2.251-5.535 14.719 14.719 0 0 1 3.848-3.877c.706-.485 1.46-.905 2.249-1.264.72-.328 1.472-.594 2.248-.801.5-.137 1.011-.242 1.528-.322v28.868z"/><text y="115" font-size="5" font-weight="bold" font-family="'Helvetica Neue', Helvetica, Arial-Unicode, Arial, Sans-serif">Created by Tim Boelaars</text><text y="120" font-size="5" font-weight="bold" font-family="'Helvetica Neue', Helvetica, Arial-Unicode, Arial, Sans-serif">from the Noun Project</text></svg>