<svg xmlns="http://www.w3.org/2000/svg" viewBox="NaN NaN NaN 112.37625"><path d="M47.049 0v2.198l17.929-.001C65.417.782 66.629.141 68.025 0a3.296 3.296 0 0 1 0 6.593c-1.755-.11-2.485-.863-3.13-2.395h-8.092c13.784 4.112 24.652 15.234 28.901 28.9l-.001-8.035c-1.463-.443-2.149-1.635-2.296-3.088a3.297 3.297 0 0 1 3.297-3.296h-.001A3.297 3.297 0 0 1 90 21.975c-.103 1.674-.815 2.465-2.296 3.088l-.001 17.888h2.198v6.395h-2.198v17.887c1.464.443 2.151 1.635 2.297 3.088a3.296 3.296 0 0 1-6.593 0c.103-1.674.815-2.465 2.297-3.088l-.001-8.232c-5.335 17.903-22.292 30.407-40.851 30.875v.025H0V45.049h.025C.288 26.355 13.176 9.707 30.9 4.198h-8.092c-.449 1.51-1.619 2.242-3.129 2.395a3.297 3.297 0 0 1-3.296-3.297C16.456 1.37 17.843.185 19.679 0l.552.058c1.281.205 1.916 1.086 2.494 2.14h17.929V0h6.395zM2 59.001v28.9h28.9C17.116 83.789 6.249 72.667 2 59.001zm78.479-33.117c.668 3.277.475 1.681.632 4.783 0 12.082-9.794 21.876-21.876 21.876-5.144-.164-10.642-1.721-14.383-5.462v40.795c21.598-.359 38.095-17.69 40.603-38.53h-1.949v-6.395h2.064c-.344-6.06-2.376-11.705-5.091-17.067zM42.852 47.049H2.025c.289 22.081 18.949 40.275 40.827 40.827V47.049zM59.234 10.79c-10.977 0-19.876 8.899-19.876 19.877 0 10.977 8.899 19.876 19.877 19.876 10.977 0 19.876-8.899 19.876-19.876 0-10.978-8.899-19.877-19.876-19.877zm28.667 36.556v-2.395h-2.395v2.395h2.395zM40.654 4.372C19.287 6.148 3.097 23.914 2.025 45.049H42.82c-3.78-3.817-5.2-9.186-5.462-14.382 0-12.082 9.794-21.877 21.877-21.877 3.101.157 1.505-.036 4.782.632-5.372-3.242-10.868-4.256-16.968-5.025v1.998h-6.395V4.372zM45.049 2h-2.395v2.395h2.395V2z"/><text x="NaN" y="NaN" font-size="5" font-weight="bold" font-family="'Helvetica Neue', Helvetica, Arial-Unicode, Arial, Sans-serif">Created by Chris Homan</text><text x="NaN" y="NaN" font-size="5" font-weight="bold" font-family="'Helvetica Neue', Helvetica, Arial-Unicode, Arial, Sans-serif">from the Noun Project</text></svg>