<svg xmlns="http://www.w3.org/2000/svg" viewBox="0 0 72 90"><path d="M69.8.5H2.2C1.3.5.5 1.3.5 2.2v67.6c0 .9.8 1.7 1.7 1.7h67.6c.9 0 1.7-.8 1.7-1.7V2.2c0-.9-.8-1.7-1.7-1.7zM25 4.5c1.2 0 2.1.9 2.1 2.1 0 1.2-.9 2.1-2.1 2.1-1.2 0-2.1-.9-2.1-2.1 0-1.2.9-2.1 2.1-2.1zm-8.9 0c1.2 0 2.1.9 2.1 2.1 0 1.2-.9 2.1-2.1 2.1-1.1 0-2.1-.9-2.1-2.1 0-1.2 1-2.1 2.1-2.1zm-8.8 0c1.2 0 2.1.9 2.1 2.1 0 1.2-.9 2.1-2.1 2.1s-2.1-.9-2.1-2.1c0-1.2.9-2.1 2.1-2.1zm59.2 60.3c0 .9-.8 1.7-1.7 1.7H7.2c-.9 0-1.7-.8-1.7-1.7V16.5c0-.9.8-1.7 1.7-1.7h57.6c.9 0 1.7.8 1.7 1.7v48.3z"/><path d="M61.9 30.3h-2.5c-.3 0-.5-.2-.6-.4-.2-.5-.4-1.1-.7-1.6-.1-.2-.1-.5.1-.7l1.7-1.7c.2-.2.2-.7 0-.9l-2.7-3c-.2-.2-.7-.2-.9 0l-1.7 1.7c-.2.2-.5.2-.7.1-.5-.3-1-.5-1.6-.7-.3-.1-.4-.3-.4-.6V20c0-.4-.3-.6-.6-.6H47c-.4 0-.6.3-.6.6v2.5c0 .3-.2.5-.4.6-.5.2-1.1.4-1.6.7-.2.1-.5.1-.7-.1L41.9 22c-.2-.2-.7-.2-.9 0l-2.9 2.9c-.2.2-.2.7 0 .9l1.7 1.7c.2.2.2.5.1.7-.3.5-.5 1-.7 1.6-.1.3-.3.4-.6.4h-2.5c-.4 0-.6.3-.6.6V35c0 .4.3.6.6.6h2.5c.3 0 .5.2.6.4.2.5.4 1.1.7 1.6.1.2.1.5-.1.7L38.1 40c-.2.2-.2.7 0 .9L41 44c.2.2.7.2.9 0l1.7-1.7c.2-.2.5-.2.7-.1.5.3 1 .5 1.6.7.3.1.4.3.4.6V46c0 .4.3.6.6.6H51c.4 0 .6-.3.6-.6v-2.5c0-.3.2-.5.4-.6.5-.2 1.1-.4 1.6-.7.2-.1.5-.1.7.1L56 44c.2.2.7.2.9 0l2.9-2.9c.2-.2.2-.7 0-.9l-1.7-1.7c-.2-.2-.2-.5-.1-.7.3-.5.5-1 .7-1.6.1-.3.3-.4.6-.4h2.5c.4 0 .6-.3.6-.6v-4.1c.2-.5-.1-.8-.5-.8zm-12.8 9.1c-3.5 0-6.4-2.9-6.4-6.4s2.9-6.4 6.4-6.4 6.4 2.9 6.4 6.4-2.9 6.4-6.4 6.4zM58 54.9H14c-1.1 0-2 .9-2 2s.9 2 2 2h44c1.1 0 2-.9 2-2s-.9-2-2-2zM27 36.4c-.8-.6-1.9-.4-2.6.3l-3 3c-.3.3-.8.1-.8-.3V20.9c0-1-.7-1.9-1.7-2.1-1.3-.2-2.3.8-2.3 2v18.5c0 .4-.5.6-.8.3l-3-3c-.7-.7-1.8-.9-2.6-.3-1 .7-1.1 2.2-.3 3l7.2 7.2c.4.4.9.6 1.4.6.5 0 1-.2 1.4-.6l7.2-7.2c1-.7.9-2.2-.1-2.9z"/><text y="87" font-size="5" font-weight="bold" font-family="'Helvetica Neue', Helvetica, Arial-Unicode, Arial, Sans-serif">Created by Creative Stall</text><text y="92" font-size="5" font-weight="bold" font-family="'Helvetica Neue', Helvetica, Arial-Unicode, Arial, Sans-serif">from the Noun Project</text></svg>