<svg xmlns="http://www.w3.org/2000/svg" viewBox="0 0 100 125"><path d="M94.9 73.2l.1-67V6h-.1l-65.3 8.7v53c-2.6-.8-5.5-1.2-8.5-.9-9.6.9-16.8 7.8-16 15.2.7 7.5 9.1 12.8 18.7 11.9 9.6-.9 16.8-7.8 16-15.3 0-.1 0-.2-.1-.4h.1v-46l45-6.6v36.8c-2.6-.8-5.5-1.2-8.5-.9-9.6.9-16.8 7.8-16 15.3.7 7.5 9.1 12.8 18.7 11.9 9.6-.9 16.8-7.8 16-15.3-.1.1-.1 0-.1-.2z"/><text y="115" font-size="5" font-weight="bold" font-family="'Helvetica Neue', Helvetica, Arial-Unicode, Arial, Sans-serif">Created by Yoshi</text><text y="120" font-size="5" font-weight="bold" font-family="'Helvetica Neue', Helvetica, Arial-Unicode, Arial, Sans-serif">from the Noun Project</text></svg>