<svg xmlns="http://www.w3.org/2000/svg" viewBox="0 0 512 640"><path d="M469.2 376.8c22.5 0 40.8-18.3 40.8-40.8V42.8C510 20.3 491.7 2 469.2 2H42.8C20.3 2 2 20.3 2 42.8v293.3c0 22.5 18.3 40.8 40.8 40.8h199.1V431c-11.1 4.1-20 13-24.1 24.1H16.1c-7.8 0-14.1 6.3-14.1 14.1s6.3 14.1 14.1 14.1h201.7c5.8 15.5 20.7 26.7 38.2 26.7s32.4-11.1 38.2-26.7h201.7c7.8 0 14.1-6.3 14.1-14.1s-6.3-14.1-14.1-14.1H294.2c-4.1-11.1-13-20-24.1-24.1v-54.2h199.1zm12.6-326.6v278.5L342.5 189.4 481.8 50.2zm-20-20L256 236 50.2 30.2h411.6zM30.2 328.7V227.3h21.9c7.8 0 14.1-6.3 14.1-14.1s-6.3-14.1-14.1-14.1H30.2v-19.3h45.7c7.8 0 14.1-6.3 14.1-14.1s-6.3-14.1-14.1-14.1H30.2V50.2l139.2 139.2L30.2 328.7zM256 481.8c-6.9 0-12.5-5.6-12.5-12.5s5.6-12.5 12.5-12.5 12.5 5.6 12.5 12.5-5.6 12.5-12.5 12.5zM50.2 348.6l139.2-139.2L246 266c6 5.7 14.3 5.4 20 0l56.6-56.6 139.2 139.2H50.2z"/><text y="527" font-size="5" font-weight="bold" font-family="'Helvetica Neue', Helvetica, Arial-Unicode, Arial, Sans-serif">Created by Icon Fair</text><text y="532" font-size="5" font-weight="bold" font-family="'Helvetica Neue', Helvetica, Arial-Unicode, Arial, Sans-serif">from the Noun Project</text></svg>