<svg xmlns="http://www.w3.org/2000/svg" viewBox="0 0 100 125"><path d="M91.368 48.684h-7.772c-.962 0-1.889.381-2.569 1.062l-8.044 8.053V47.576a3.631 3.631 0 0 0-3.632-3.632h-7.054c6.292-2.542 10.749-8.725 10.749-15.934 0-9.469-7.708-17.177-17.177-17.177-8.217 0-15.098 5.783-16.787 13.491-1.689-7.708-8.571-13.491-16.778-13.491-9.479 0-17.186 7.708-17.186 17.177 0 7.209 4.458 13.391 10.758 15.934H8.632A3.63 3.63 0 0 0 5 47.576v37.959a3.631 3.631 0 0 0 3.632 3.632h60.72a3.631 3.631 0 0 0 3.632-3.632V75.312l8.044 8.053a3.635 3.635 0 0 0 2.569 1.062h7.772a3.631 3.631 0 0 0 3.632-3.632v-28.48a3.632 3.632 0 0 0-3.633-3.631zM55.87 18.096c5.466 0 9.914 4.449 9.914 9.914 0 5.475-4.449 9.923-9.914 9.923-5.475 0-9.923-4.449-9.923-9.923-.001-5.465 4.448-9.914 9.923-9.914zM39.083 31.697a17.233 17.233 0 0 0 10.359 12.248h-20.71a17.24 17.24 0 0 0 10.351-12.248zm-26.702-3.686c0-5.466 4.449-9.914 9.923-9.914 5.465 0 9.914 4.449 9.914 9.914 0 5.475-4.449 9.923-9.914 9.923-5.474 0-9.923-4.449-9.923-9.923zM65.72 81.904H12.263V51.208H65.72v30.696zm22.017-4.74h-2.642L74.491 66.56l10.604-10.613h2.642v21.217z"/><path d="M55.689 71.401H22.295a2.725 2.725 0 0 1-2.724-2.724v-9.72a2.725 2.725 0 0 1 2.724-2.724h33.394a2.725 2.725 0 0 1 2.724 2.724v9.72a2.724 2.724 0 0 1-2.724 2.724zm-30.67-5.447h27.947v-4.273H25.019v4.273z"/></svg>
