<svg xmlns="http://www.w3.org/2000/svg" viewBox="0 0 100 125"><path d="M67 36.21V31h-.944C47.889 31 42 37.625 42 37.625V59.26c-2-.075-2.084.053-3.09.419-3.001 1.09-4.814 3.848-3.974 6.159.839 2.311 3.924 3.3 6.925 2.209C44.066 67.245 46 65.545 46 63.781V43.452c2-1.741 11-3.074 17-3.75v16.022c-1-.073-2.33.054-3.34.419-3 1.09-4.938 3.847-4.098 6.16.841 2.311 3.859 3.298 6.859 2.209 2.499-.908 4.331-2.974 4.322-4.973L67 36.21z"/><path d="M93.987 53.313c-3.071 0-5.808 2.5-5.808 5.571 0 2.544 1.82 4.671 3.82 5.336v27.268c.001 1.035.276.512-.56.512H78.774c.141 0 .226-.338.226-.856v-8.179c1-.545 2.246-1.84 2.246-3.353a3.628 3.628 0 0 0-3.627-3.627c-2.004 0-3.574 1.625-3.574 3.627 0 1.375.955 2.556 1.955 3.172v8.359c0 .378-.108.857-2.292.857H54.127c-.724 0-.973.191-.959.215-.02-.033-.168.002-.168-.727v-9.256C70 81.516 83.326 68 83.808 51h7.632c2.749 0 3.56-1.328 3.56-4.079V10.56c0-1.7-.75-2.785-2.568-3.412C91.311 6.761 90.521 7 90.402 7h-23.32C66.225 7 66 7.196 66 8.055v10.364c0 .859.225 1.581 1.082 1.581h10.169c.662 2 2.792 4.048 5.336 4.048 3.071 0 5.57-2.506 5.57-5.578s-2.499-5.507-5.57-5.507c-2.513 0-4.617 2.037-5.31 4.037H69v-7h21.395c.022 0 1.605-.302 1.605.56v36.361c0 .731.127.907.125.911-.002.001.048.168-.686.168h-7.69C82.653 31 70 18.744 53 18.044v-7.282c0-.714-.02-1.513-.73-2.381C51.381 7.298 49.945 7 47.909 7H12.236c-.692-3-2.796-4.222-5.309-4.222-3.072 0-5.571 2.375-5.571 5.446 0 3.072 2.499 5.704 5.571 5.704C9.472 13.928 11.6 12 12.263 10h6.017C11.087 14 6 19.764 6 24.811v8.009c-3 .664-4.352 2.792-4.352 5.336 0 3.072 2.354 5.571 5.425 5.571s5.736-2.499 5.736-5.571c0-2.513-1.809-4.618-3.809-5.31V26h9.148c.574 1 1.827 2.213 3.289 2.213 2.002 0 3.627-1.577 3.627-3.58s-1.625-3.645-3.627-3.645c-1.426 0-2.648 1.012-3.241 2.012H8.83C10.603 18 20 9.825 29 9.825V10h18.909c1.443 0 1.885.169 1.986.279.119.132.104.186.117.159l-.027 7.666C33.063 19 19.581 33.022 19.581 50.163 19.581 67.303 33 81.323 50 82.221v9.268c0 .521-.027.572-.049.759-.108.008-.272-.248-.488-.248H29.364C27.18 92 27 91.521 27 91.144v-8.288c1-.594 2.12-1.815 2.12-3.243 0-2.002-1.58-3.627-3.583-3.627s-3.64 1.625-3.64 3.627c0 1.461 1.103 2.714 2.103 3.288v8.243c0 .518.158.856.297.856H9.56c-.426 0-.747.18-.88.035a.663.663 0 0 1-.168-.483l.011-33.642c2.291-.691 3.975-2.764 3.975-5.277 0-3.071-2.499-5.554-5.571-5.554s-5.278 2.507-5.278 5.58c0 2.545 1.352 4.68 4.352 5.344V91.42c0 .443-.336 1.51.636 2.611.516.586 1.202.969 2.923.969h39.903c.991 0 1.707-.175 2.233-.472.733.384 1.608.472 2.431.472h37.312C95.181 95 95 92.734 95 91.488V64.193c3-.692 4.266-2.796 4.266-5.309 0-3.071-2.206-5.571-5.279-5.571zm-11.4-37.311a2.462 2.462 0 1 1 0 4.924 2.462 2.462 0 0 1 0-4.924zM6.927 10.56a2.462 2.462 0 1 1 0-4.924 2.462 2.462 0 0 1 0 4.924zm2.461 27.596a2.462 2.462 0 1 1-4.924-.002 2.462 2.462 0 0 1 4.924.002zm-4.923 14.51a2.462 2.462 0 1 1 4.925 0 2.462 2.462 0 0 1-4.925 0zm18.217-2.527c0-16.028 12.992-29.021 29.02-29.021s29.021 12.993 29.021 29.021c0 16.027-12.993 29.021-29.021 29.021s-29.02-12.994-29.02-29.021zm71.305 11.207a2.463 2.463 0 0 1-2.462-2.461 2.463 2.463 0 0 1 4.924 0 2.462 2.462 0 0 1-2.462 2.461z"/><text y="115" font-size="5" font-weight="bold" font-family="'Helvetica Neue', Helvetica, Arial-Unicode, Arial, Sans-serif">Created by Jason D. Rowley</text><text y="120" font-size="5" font-weight="bold" font-family="'Helvetica Neue', Helvetica, Arial-Unicode, Arial, Sans-serif">from the Noun Project</text></svg>