<svg xmlns="http://www.w3.org/2000/svg" viewBox="0 0 100 125"><path style="text-indent:0;text-transform:none;block-progression:tb" d="M15 4C8.9 4 4 9.134 4 15.281v69.407C4 90.835 8.9 96 15 96h70c6.1 0 11-5.165 11-11.312V15.28C96 9.134 91.1 4 85 4H15zm0 6h70c2.763 0 5 2.24 5 5.281v69.407C90 87.728 87.763 90 85 90H15c-2.763 0-5-2.272-5-5.312V15.28c0-3.039 2.237-5.28 5-5.28zm35 4c-20.065 0-36 16.323-36 36s15.935 36 36 36c20.065 0 36-16.323 36-36S70.065 14 50 14zm-3 8v9h-9.031c2.337-4.588 5.491-7.823 9.031-9zm6 0c3.54 1.177 6.694 4.412 9.031 9H53v-9zm-17.125 1.344c-1.436 2.242-2.66 4.823-3.687 7.656h-5.313a30.086 30.086 0 0 1 9-7.656zm28.25 0a30.086 30.086 0 0 1 9 7.656h-5.312c-1.027-2.833-2.252-5.414-3.688-7.656zM23.188 37h7.25a58.193 58.193 0 0 0-1.344 10h-8.625a30.493 30.493 0 0 1 2.719-10zm12.437 0H47v10H33.938c.21-3.594.802-6.955 1.687-10zM53 37h11.375c.885 3.045 1.477 6.406 1.688 10H53V37zm16.563 0h7.25a30.49 30.49 0 0 1 2.718 10h-8.625a58.193 58.193 0 0 0-1.343-10zM20.469 53h8.625a58.545 58.545 0 0 0 1.344 10h-7.25a30.495 30.495 0 0 1-2.72-10zm13.469 0H47v10H35.625c-.885-3.045-1.477-6.406-1.687-10zM53 53h13.063c-.21 3.594-.803 6.955-1.688 10H53V53zm17.906 0h8.625a30.492 30.492 0 0 1-2.719 10h-7.25a58.545 58.545 0 0 0 1.344-10zM26.875 69h5.313c1.026 2.833 2.251 5.416 3.687 7.656a29.923 29.923 0 0 1-9-7.656zm11.094 0H47v9c-3.54-1.177-6.694-4.411-9.031-9zM53 69h9.031c-2.337 4.589-5.491 7.823-9.031 9v-9zm14.813 0h5.312a29.924 29.924 0 0 1-9 7.656c1.436-2.24 2.66-4.823 3.688-7.656z" overflow="visible" color="#000"/><text y="115" font-size="5" font-weight="bold" font-family="'Helvetica Neue', Helvetica, Arial-Unicode, Arial, Sans-serif">Created by AFY Studio</text><text y="120" font-size="5" font-weight="bold" font-family="'Helvetica Neue', Helvetica, Arial-Unicode, Arial, Sans-serif">from the Noun Project</text></svg>