<svg xmlns="http://www.w3.org/2000/svg" viewBox="0 0 100 125"><path d="M2 18v64h97V18H2zm4 8h65v52H6V26zm89 52H75V26h20v52z"/><path d="M77 28h4v4h-4zm6 0h6v4h-6zm0 6h10v4H83zm-6 0h4v4h-4zM10 49.805L15.845 30h2.759l-5.846 19.805H10zm18.765-18.439l-2.95 3.469.027.082 4.343-.874v2.759l-4.371-.765-.027.082 2.977 3.36-2.43 1.42-1.557-4.234-.055.028-1.584 4.206-2.349-1.42 2.923-3.414v-.055l-4.29.792v-2.759l4.234.847.027-.055-2.896-3.441L23.22 30l1.53 4.179h.056L26.362 30l2.403 1.366z"/><text y="115" font-size="5" font-weight="bold" font-family="'Helvetica Neue', Helvetica, Arial-Unicode, Arial, Sans-serif">Created by Nikhil Dev</text><text y="120" font-size="5" font-weight="bold" font-family="'Helvetica Neue', Helvetica, Arial-Unicode, Arial, Sans-serif">from the Noun Project</text></svg>