<svg xmlns="http://www.w3.org/2000/svg" data-name="Layer 1" viewBox="0 0 512 640"><title>2</title><path d="M430.5 0h-349C36.49 0 0 37.18 0 83.09v234.62c0 1.73.07 3.43.17 5.13a20.68 20.68 0 0 0-.17 2.52v176.48c0 11.22 5.88 13.53 13.07 5L102.8 401h327.7c45 0 81.5-37.37 81.5-83.29V83.09C512 37.18 475.51 0 430.5 0zM144.63 236a27.88 27.88 0 1 1 27.88-27.88A27.88 27.88 0 0 1 144.63 236zM256 236a27.88 27.88 0 1 1 27.88-27.88A27.88 27.88 0 0 1 256 236zm111.37 0a27.88 27.88 0 1 1 27.88-27.88A27.88 27.88 0 0 1 367.37 236z"/><text y="527" font-size="5" font-weight="bold" font-family="'Helvetica Neue', Helvetica, Arial-Unicode, Arial, Sans-serif">Created by i cons</text><text y="532" font-size="5" font-weight="bold" font-family="'Helvetica Neue', Helvetica, Arial-Unicode, Arial, Sans-serif">from the Noun Project</text></svg>