<svg xmlns="http://www.w3.org/2000/svg" viewBox="0 0 56 75"><title>Group 117</title><g fill-rule="evenodd"><path d="M29.018 46.004c-2.206 0-4 1.794-4 4s1.794 4 4 4 4-1.794 4-4-1.794-4-4-4m0 10c-3.31 0-6-2.691-6-6 0-3.31 2.69-6 6-6 3.309 0 6 2.69 6 6 0 3.309-2.691 6-6 6m0-50.001c-2.206 0-4 1.795-4 4 0 2.207 1.794 4 4 4s4-1.793 4-4c0-2.205-1.794-4-4-4m0 10c-3.31 0-6-2.69-6-6 0-3.309 2.69-6 6-6 3.309 0 6 2.691 6 6 0 3.31-2.691 6-6 6m15.001 14.16a.996.996 0 0 1-.898-.56l-4-8.16a.999.999 0 0 1 .457-1.337.994.994 0 0 1 1.337.457l4 8.16a.996.996 0 0 1-.896 1.44"/><path d="M29.018 2.003c-5.514 0-10 4.486-10 10v36c0 5.514 4.486 10 10 10s10-4.486 10-10v-36c0-5.514-4.486-10-10-10m0 58c-6.617 0-12-5.383-12-12v-36c0-6.617 5.383-12 12-12s12 5.383 12 12v36c0 6.617-5.383 12-12 12"/><path d="M41.018 33.43c2.636 3.113 6.773 6.681 12.285 7.434l-12.285-23.75V33.43zm14 9.573h-.024c-7.312-.179-12.6-4.76-15.747-8.573a.999.999 0 0 1-.23-.637v-20.79c0-.46.316-.862.765-.97a.994.994 0 0 1 1.125.511l15 29a1.002 1.002 0 0 1-.89 1.46zm-28-6.999h4v-3a1 1 0 0 1 1-1h3v-4h-3a1 1 0 0 1-1-1v-3h-4v3a1 1 0 0 1-1 1h-3v4h3a1 1 0 0 1 1 1v3zm5 2h-6a1 1 0 0 1-1-1v-3h-3a1 1 0 0 1-1-1v-6a1 1 0 0 1 1-1h3v-3a1 1 0 0 1 1-1h6a1 1 0 0 1 1 1v3h3a1 1 0 0 1 1 1v6a1 1 0 0 1-1 1h-3v3a1 1 0 0 1-1 1zM2.97 21.046L17.018 44.4V32.91l-3.471-.34a.998.998 0 0 1-.876-1.222l.684-2.922-2.96-.694a.994.994 0 0 1-.625-.45.994.994 0 0 1-.119-.76l.823-3.375a19.033 19.033 0 0 0-7.504-2.102m15.048 27.958c-.345 0-.673-.18-.857-.484L.32 20.52a.999.999 0 1 1 .856-1.516h.532c3.648 0 7.249.956 10.415 2.766a1 1 0 0 1 .476 1.105l-.766 3.142 2.95.69a1 1 0 0 1 .747 1.201l-.652 2.784 3.238.317a1 1 0 0 1 .902.995v16a1 1 0 0 1-1 1"/></g><text y="75" font-size="5" font-weight="bold" font-family="'Helvetica Neue', Helvetica, Arial-Unicode, Arial, Sans-serif">Created by Oliviu Stoian</text><text y="80" font-size="5" font-weight="bold" font-family="'Helvetica Neue', Helvetica, Arial-Unicode, Arial, Sans-serif">from the Noun Project</text></svg>