<svg xmlns="http://www.w3.org/2000/svg" width="485.667" height="485.683" viewBox="69.82 81.897 485.667 485.683"><path d="M212.407 567.58h-.232c-13.023 0-23.776-10.587-23.966-23.61-.098-6.408 2.307-12.461 6.763-17.057a23.803 23.803 0 0 1 16.848-7.271c35.6-.532 59.431-8.63 72.84-24.768 23.776-28.605 17.509-84.132 6.726-148.845-29.731-4.97-60.502-9.547-86.831-9.547-28.568 0-48.856 5.318-62.02 16.267-16.138 13.409-24.235 37.24-24.768 72.84-.189 13.023-10.942 23.611-23.966 23.611-6.763-.098-12.748-2.681-17.209-7.271-4.461-4.597-6.867-10.648-6.769-17.057.747-50.435 14.504-86.084 42.057-109.003 22.111-18.378 52.455-27.307 92.767-27.307 25.227 0 52.283 3.421 78.41 7.534-10.037-64.089-14.963-128.667 19.707-171.005 22.595-27.595 57.662-41.72 107.197-43.188l.717-.006c13.048 0 23.574 10.214 23.96 23.262.385 13.213-10.043 24.284-23.257 24.676-34.847 1.034-58.244 9.413-71.518 25.631-23.776 29.033-17.24 86.671-6.892 148.967 29.449 4.908 59.945 9.418 86.329 9.418 28.727 0 49.217-5.336 62.619-16.316 16.219-13.274 24.603-36.665 25.631-71.518.386-13.042 10.991-23.262 24.144-23.262 6.934.196 12.877 2.87 17.265 7.527 4.388 4.658 6.714 10.753 6.518 17.154-1.463 49.536-15.594 84.597-43.183 107.198-22.308 18.262-52.748 27.142-93.066 27.142h-.007c-25.178 0-52.032-3.372-77.932-7.43 10.104 64.395 15.092 129.224-19.773 171.176-22.896 27.546-58.55 41.304-108.998 42.057l-.111.001zm-7.852-248.454c29.48 0 63.495 5.343 95.809 10.814a8.665 8.665 0 0 1 7.105 7.105c12.111 71.61 19.762 133.747-9.468 168.918-16.848 20.27-44.951 30.417-85.918 31.017a6.602 6.602 0 0 0-4.664 2.014 6.59 6.59 0 0 0-1.873 4.712c.055 3.604 3.023 6.53 6.622 6.53l.233 8.672-.129-8.672c45.074-.674 76.451-12.381 95.919-35.809 32.338-38.898 24.688-104.891 14.082-169.144a8.674 8.674 0 0 1 2.423-7.54c1.978-1.977 4.756-2.895 7.546-2.423 28.752 4.73 59.193 9.106 87.002 9.112 36.151 0 63-7.595 82.082-23.219 23.477-19.229 35.521-50.074 36.83-94.285a6.565 6.565 0 0 0-1.8-4.737 6.58 6.58 0 0 0-4.626-2.081c-3.789 0-6.714 2.76-6.818 6.426-1.193 40.166-11.652 67.785-31.989 84.425-16.634 13.624-40.71 20.245-73.611 20.245-29.553 0-63.286-5.275-95.307-10.686a8.665 8.665 0 0 1-7.105-7.105c-12.056-71.329-19.651-133.275 9.554-168.937 16.641-20.325 44.254-30.784 84.426-31.983 3.653-.11 6.529-3.17 6.426-6.817a6.595 6.595 0 0 0-6.616-6.433c-44.419 1.316-75.264 13.36-94.486 36.843-32.234 39.357-24.633 105.111-14.101 169.083a8.668 8.668 0 0 1-9.969 9.969c-28.979-4.792-59.64-9.223-87.467-9.223-36.089 0-62.81 7.619-81.677 23.299-23.421 19.48-35.135 50.857-35.808 95.925a6.575 6.575 0 0 0 1.873 4.712 6.608 6.608 0 0 0 4.664 2.014c3.696 0 6.67-2.932 6.726-6.53.606-40.967 10.753-69.07 31.016-85.918 16.386-13.658 40.303-20.293 73.094-20.293z"/><path d="M463.816 241.47a12.187 12.187 0 0 1-8.653-3.586l-97.106-97.112c-4.779-4.78-4.779-12.527 0-17.307s12.527-4.78 17.308 0l97.105 97.112c4.78 4.78 4.78 12.528 0 17.308a12.188 12.188 0 0 1-8.654 3.585zm40.747 40.747a12.187 12.187 0 0 1-8.653-3.586l-14.175-14.174c-4.779-4.78-4.779-12.527 0-17.307 4.78-4.78 12.528-4.78 17.308 0l14.174 14.174c4.78 4.78 4.78 12.528 0 17.308a12.188 12.188 0 0 1-8.654 3.585zm-36.297 39.143a12.187 12.187 0 0 1-8.653-3.586l-98.043-98.042c-4.779-4.78-4.779-12.528 0-17.308 4.78-4.78 12.528-4.78 17.308 0l98.042 98.042c4.78 4.78 4.78 12.528 0 17.308a12.23 12.23 0 0 1-8.654 3.586zM342.793 195.882a12.192 12.192 0 0 1-8.653-3.586l-13.054-13.054c-4.78-4.78-4.78-12.527 0-17.307 4.779-4.78 12.527-4.78 17.308 0l13.054 13.054c4.779 4.78 4.779 12.528 0 17.308a12.231 12.231 0 0 1-8.655 3.585zm27.81 103.257c-3.158 0-6.31-1.212-8.709-3.641l-50.734-51.353c-4.749-4.804-4.706-12.559.11-17.308 4.804-4.743 5.275-12.081 10.036-7.271l58.012 58.728c4.749 4.804 4.706 12.558-.11 17.308a12.24 12.24 0 0 1-8.605 3.537zm29.926 30.288a12.23 12.23 0 0 1-9.669-4.725l-1.273-1.64c-4.149-5.337-3.188-13.03 2.154-17.179 5.33-4.143 13.018-3.188 17.179 2.154l10.331 12.889c4.149 5.337-5.869 1.775-11.206 5.924a12.247 12.247 0 0 1-7.516 2.577zm-143.47 198.685a12.19 12.19 0 0 1-8.654-3.586l-96.555-96.562c-4.78-4.78-4.78-12.527 0-17.308 4.78-4.779 12.527-4.779 17.307 0l96.555 96.562c4.78 4.779 4.78 12.527 0 17.308a12.19 12.19 0 0 1-8.653 3.586zM133.93 404.984a12.179 12.179 0 0 1-8.654-3.587l-13.164-13.17c-4.78-4.78-4.78-12.534 0-17.307 4.78-4.78 12.54-4.78 17.307 0l13.165 13.17c4.779 4.78 4.779 12.534 0 17.307a12.218 12.218 0 0 1-8.654 3.587zm120.166 44.713a12.19 12.19 0 0 1-8.654-3.587l-97.399-97.399c-4.78-4.78-4.78-12.528 0-17.308s12.527-4.78 17.307 0l97.4 97.399c4.78 4.78 4.78 12.528 0 17.308a12.198 12.198 0 0 1-8.654 3.587zm43.103 43.11a12.19 12.19 0 0 1-8.653-3.587l-15.68-15.673c-4.78-4.773-4.78-12.528 0-17.308 4.768-4.78 12.528-4.78 17.308 0l15.679 15.673c4.78 4.774 4.78 12.528 0 17.308a12.174 12.174 0 0 1-8.654 3.587zm15.466-58.655c-3.134 0-9.413-6.022-11.806-8.415l-55.796-55.447c-4.78-4.78-4.78-12.528 0-17.308s12.528-4.78 17.308 0l50.098 50.099c4.779 4.779 4.779 12.527 0 17.308-2.393 2.392 3.329 13.763.196 13.763zm-87.633-88.936c-3.182 0-6.365-1.292-8.629-3.55-2.258-2.332-7.62-9.002-7.62-12.24 0-3.188 5.361-2.815 7.62-5.08 4.59-4.59 12.729-4.529 17.319 0 2.265 2.264 3.55 5.447 3.55 8.629 0 3.238-1.285 6.359-3.55 8.69-2.325 2.26-5.446 3.551-8.69 3.551z"/></svg>