<svg xmlns="http://www.w3.org/2000/svg" viewBox="0 0 100 125"><switch><g><path d="M61.5 37c0-.9-.1-1.7-.1-2.5-.2-1.5-.4-3-.9-4.4-1.1-3.8-3.2-7.4-6.2-10.4s-6.6-5-10.4-6.2c-2.3-.7-4.6-1-7-1-1.6 0-3.1.2-4.7.4-2.3.5-4.6 1.2-6.7 2.4-2.1 1.1-4.1 2.5-5.8 4.3l-.1.1-.1.1c-1.7 1.8-3.2 3.7-4.3 5.8-1.1 2.1-1.9 4.4-2.4 6.7-.3 1.5-.4 3.1-.4 4.7 0 2.4.3 4.7 1 7 1.1 3.8 3.2 7.4 6.2 10.4s6.6 5 10.4 6.2c1.4.4 2.9.7 4.4.9.8.1 1.7.1 2.5.1 1.6 0 3.1-.2 4.7-.4 2.3-.4 4.6-1.2 6.7-2.4 1.1-.6 2.1-1.2 3.1-1.9s1.9-1.5 2.8-2.4 1.7-1.8 2.4-2.8c.4-.5.7-1 1-1.5.3-.5.6-1 .9-1.6 1.1-2.1 1.9-4.4 2.4-6.7.4-1.8.6-3.4.6-4.9zm33.3 48.5c.3.3.3.8 0 1.1l-4.1 4.1h-.1v.1l-4.1 4.1c-.3.3-.8.3-1.1 0-.8-.8-1.3-1.9-1.4-3v-.6c-.1-.7-.6-1.3-1.3-1.4h-.3c-.3 0-.5-.2-.6-.3l-.2-.3-.3-.3-17-16.9c-1.9-2-.5-2.3-2.6-4.3l-2.1-2.1-3.3-3.3c-3.1 2.4-6.6 4.1-10.3 5.2-2.3.7-4.6 1.1-6.9 1.3-.9.1-1.9.1-2.8.1-.5 0-.9 0-1.4-.1-.7 0-1.4-.1-2.1-.2-1.2-.1-2.3-.4-3.5-.6-1.8-.4-3.6-1.1-5.4-1.8-.4-.2-.9-.4-1.3-.6-.9-.4-1.7-.9-2.5-1.4-.4-.3-.8-.5-1.2-.8-1.6-1.1-3.2-2.4-4.6-3.8-10.1-10.2-12-25.6-5.7-37.6.5-1 1.1-1.9 1.7-2.8.3-.4.5-.8.8-1.2.2-.3.5-.6.7-1 .5-.6 1-1.2 1.6-1.9l.9-.9c1.2-1.2 2.4-2.2 3.7-3.2 1.3-.9 2.6-1.8 4-2.5 12.1-6.3 27.4-4.4 37.5 5.7 1.4 1.4 2.7 3 3.8 4.6.3.4.5.8.8 1.2.5.8 1 1.7 1.4 2.5.2.4.4.9.6 1.3.8 1.7 1.4 3.6 1.8 5.4.2.9.4 1.8.5 2.8.1.9.2 1.9.3 2.8 0 .5.1.9.1 1.4 0 1.4 0 2.8-.2 4.2-.2 1.9-.6 3.7-1.1 5.5-1.1 3.6-2.8 7.1-5.2 10.3l3.3 3.3 2.1 2.1c2.1 2.1 2.4.7 4.3 2.6l16.8 16.8.3.3.3.2c.2.2.3.4.3.6v.3c.1.7.7 1.2 1.4 1.3l.5.1c1.3.3 2.4.8 3.2 1.6z"/><path d="M20.4 32.7c-.7 1.2-2.3 1.5-3.3.5-.5-.5-.7-1.3-.6-2 .1-.4.2-.9.4-1.3.7-2.1 1.7-4.1 3.1-6l1.8-2.1c.7-.7 1.5-1.4 2.3-1.9 1.8-1.3 3.7-2.3 5.8-3 .4-.1.8-.3 1.3-.4.7-.2 1.5 0 2 .6 1 1 .7 2.6-.4 3.3-.2.1-.4.2-.6.2-2 .5-4 1.4-5.7 2.7-.6.4-1.1.9-1.7 1.4s-1 1.1-1.4 1.7c-1.3 1.7-2.2 3.7-2.7 5.7-.2.2-.3.4-.3.6z"/></g></switch></svg>