<svg xmlns="http://www.w3.org/2000/svg" viewBox="0 0 100 125"><switch><g><circle cx="-309.607" cy="14.023" r="8.993"/><path d="M-314.917 26.124H-304V32h-10.917zm-4.758 23.501h1.075V33.443c0-.797.646-1.443 1.443-1.443h.532v-5.876h-.335c-4.972 0-9.04 4.068-9.04 9.04v26.527h.015a2.486 2.486 0 1 0 4.972 0h.005V37.167c0-.367.3-.667.667-.667.367 0 .667.3.667.667v12.458z"/><path d="M-300.614 65.807c0 .797-.646 1.443-1.443 1.443h-15.1a1.443 1.443 0 0 1-1.443-1.443V50.583h-1.075v40.921a3.533 3.533 0 0 0 3.523 3.523h1.381a3.556 3.556 0 0 0 3.556-3.556V67.633H-308v23.952c0 1.9 1.54 3.44 3.44 3.44h1.497a3.533 3.533 0 0 0 3.523-3.523v-39.49l.001-.012v-1.417h-1.075v15.224z"/><path d="M-302.254 26.124h-.038V32h.235c.797 0 1.443.646 1.443 1.443v16.182h1.075V36.907a.669.669 0 0 1 .614-.407c.367 0 .667.3.667.667v24.551h.004a2.52 2.52 0 0 0 2.753 2.486c1.33-.12 2.288-1.345 2.288-2.681v-26.36c-.001-4.973-4.069-9.039-9.041-9.039zm-9.579 34.451h4.583a2.67 2.67 0 0 0 2.667-2.667v-6.667h-9.917v6.667a2.67 2.67 0 0 0 2.667 2.667zm-1.667-8.333h7.917v5.667a1.67 1.67 0 0 1-1.667 1.667h-4.583a1.67 1.67 0 0 1-1.667-1.667v-5.667zm130.95-26.505c0-.563-.061-1.113-.176-1.642l-15.019-.038a7.69 7.69 0 1 0 15.195 1.68zm-12.23 10.347h9.334v5.024h-9.334zm-4.069 20.095h.919V42.342c0-.681.552-1.234 1.234-1.234h.455v-5.024h-.286c-4.251 0-7.73 3.478-7.73 7.73v22.683h.013a2.126 2.126 0 1 0 4.252 0h.004V45.526c0-.313.256-.57.57-.57s.57.257.57.57v10.653z"/><path d="M-182.55 70.016c0 .681-.552 1.234-1.234 1.234h-12.911a1.234 1.234 0 0 1-1.234-1.234V56.998h-.919v34.989a3.021 3.021 0 0 0 3.012 3.012h1.18a3.041 3.041 0 0 0 3.041-3.041V71.577h2.75v20.481A2.942 2.942 0 0 0-185.923 95h1.28a3.021 3.021 0 0 0 3.012-3.012V58.22l.001-.01v-1.211h-.919v13.017z"/><path d="M-183.953 36.084h-.032v5.024h.201c.681 0 1.234.552 1.234 1.234v13.837h.919V45.304a.572.572 0 0 1 .525-.348c.314 0 .57.257.57.57v20.992h.003a2.155 2.155 0 0 0 2.354 2.126c1.138-.103 1.956-1.15 1.956-2.292v-22.54c0-4.251-3.478-7.728-7.73-7.728zm-8.191 29.458h3.919a2.283 2.283 0 0 0 2.28-2.28v-5.7h-8.479v5.7a2.283 2.283 0 0 0 2.28 2.28zm-1.425-7.125h6.769v4.845c0 .786-.639 1.425-1.425 1.425h-3.919c-.786 0-1.425-.64-1.425-1.425v-4.845zm-4.386-38.443v3.171h15.597v-3.22c2.084-.506 3.649-2.381 3.649-4.615a4.774 4.774 0 0 0-4.761-4.761h-.463c-.539-2.945-3.129-5.197-6.224-5.197s-5.684 2.252-6.224 5.197h-.63a4.774 4.774 0 0 0-4.761 4.761c.002 2.294 1.648 4.222 3.817 4.664zm.946-8.426h1.464l.15-.82a5.33 5.33 0 0 1 5.24-4.377 5.33 5.33 0 0 1 5.24 4.377l.15.82h1.297a3.765 3.765 0 0 1 3.761 3.761 3.748 3.748 0 0 1-2.885 3.643l-.764.186v3.006h-13.597v-2.988l-.801-.163a3.775 3.775 0 0 1-3.015-3.685 3.763 3.763 0 0 1 3.76-3.76zm132.544 15.131h-14.706c-4.972 0-9.04 4.068-9.04 9.04v26.527h.015a2.486 2.486 0 1 0 4.972 0h.005V37.722c0-.367.3-.667.667-.667.367 0 .667.3.667.667v54.337a3.533 3.533 0 0 0 3.523 3.523h1.381a3.556 3.556 0 0 0 3.556-3.556V60.189c0-.82.553-1.598 1.364-1.719a1.612 1.612 0 0 1 1.852 1.59v32.081c0 1.9 1.54 3.44 3.44 3.44h1.497a3.533 3.533 0 0 0 3.523-3.523V52.567l.001-.012V37.462a.669.669 0 0 1 .614-.407c.367 0 .667.3.667.667v24.551h.004a2.52 2.52 0 0 0 2.753 2.486c1.33-.12 2.288-1.345 2.288-2.681v-26.36c-.002-4.973-4.07-9.039-9.043-9.039zm-7.352 22.738l-2.458-3.543 1.25-14.592h2.416l1.25 14.592-2.458 3.543zm1.208-18.976h-2.416l-1.917-2.762h6.25l-1.917 2.762z"/><circle cx="-71.817" cy="14.578" r="8.993"/><path d="M62.484 28.859H48.43c-4.752 0-8.639 3.888-8.639 8.639v25.351h.014a2.377 2.377 0 1 0 4.752 0h.004V39.412a.64.64 0 0 1 .637-.637.64.64 0 0 1 .637.637v51.927a3.377 3.377 0 0 0 3.367 3.367h1.319a3.4 3.4 0 0 0 3.399-3.399V60.883c0-.784.528-1.527 1.303-1.643a1.54 1.54 0 0 1 1.77 1.519v30.659a3.288 3.288 0 0 0 3.288 3.288h1.43a3.377 3.377 0 0 0 3.367-3.367v-37.74l.001-.011V39.164a.64.64 0 0 1 .586-.389.64.64 0 0 1 .637.637v23.462h.004a2.41 2.41 0 0 0 2.631 2.376c1.271-.115 2.186-1.286 2.186-2.562V37.497c0-4.752-3.888-8.638-8.639-8.638zM45.379 15.281l-.002.036h20.158l-.002-.036a.984.984 0 0 0 .817-.958.997.997 0 0 0-.994-.994h-.02c-.64-3.2-2.796-5.85-5.686-7.176v.41c0 .568-.465 1.032-1.032 1.032a1.035 1.035 0 0 1-1.032-1.032V5.472a9.91 9.91 0 0 0-1.099-.178v.925c0 .568-.464 1.032-1.032 1.032s-1.032-.464-1.032-1.032v-.925c-.43.044-.849.119-1.261.215v1.072c0 .568-.464 1.032-1.032 1.032s-1.032-.464-1.032-1.032V6.23a10.095 10.095 0 0 0-5.524 7.1h-.02a.997.997 0 0 0-.994.994c.002.483.36.87.819.957zm1.467 2.014a8.61 8.61 0 0 0 8.611 8.611 8.61 8.61 0 0 0 8.542-9.704l-17.084-.009c-.045.36-.069.728-.069 1.102zM32.043 35.19a2.417 2.417 0 0 0 2.41-2.41V5.204h-3.31v9.138a.643.643 0 0 1-.643.643h-1.122a.643.643 0 0 1-.643-.643V5.204h-3.31V32.78a2.417 2.417 0 0 0 2.41 2.41h.239v3.019s1.72.967 1.935 2.579c.215 1.612-.86 3.726-3.009 3.869-2.082.139-3.153-1.755-3.153-1.755l-1.039-3.672h-.967v6.18s1.603 4.465 7.416 3.439c5.481-.967 5.195-7.462 5.195-7.462s-.072-3.465-2.508-5.162V35.19h.099zm-2.104-12.621a1.186 1.186 0 1 1 0 2.372 1.186 1.186 0 0 1 0-2.372zm0 6.84a1.186 1.186 0 1 1 0 2.372 1.186 1.186 0 0 1 0-2.372z"/></g></switch></svg>