<svg xmlns="http://www.w3.org/2000/svg" viewBox="0 0 100 125"><path d="M91.301 55.1H87.1a3.304 3.304 0 0 0-3.261 2.801H80.6V52.8a6.108 6.108 0 0 0-5.6-6.079v-1.826c10.853-.267 19.6-9.178 19.6-20.094 0-11.083-9.017-20.1-20.1-20.1-9.767 0-18.239 7.192-19.885 16.8h-5.169C47.802 11.893 39.388 4.7 29.7 4.7c-11.083 0-20.1 9.017-20.1 20.1 0 10.916 8.747 19.828 19.6 20.094v1.826a6.108 6.108 0 0 0-5.6 6.079v7.9h-1.8v-2.3c0-1.82-1.48-3.301-3.301-3.301H8.7c-1.819 0-3.3 1.48-3.3 3.301V83.6c0 1.82 1.48 3.301 3.3 3.301h9.8c1.82 0 3.301-1.48 3.301-3.301v-2.3h1.8v7.899a6.107 6.107 0 0 0 6.1 6.101h44.8c3.363 0 6.1-2.736 6.1-6.101V72.9h3.239a3.303 3.303 0 0 0 3.261 2.799h4.201a3.302 3.302 0 0 0 3.299-3.299v-14a3.305 3.305 0 0 0-3.3-3.3zM18 83.1H9.2V58.9H18v24.2zm5.601-5.6h-1.8v-13h1.8v13zM74.5 8.5c8.988 0 16.301 7.312 16.301 16.3 0 8.987-7.312 16.299-16.301 16.299-8.987 0-16.3-7.312-16.3-16.299 0-8.988 7.313-16.3 16.3-16.3zM49.794 25.3h4.612c.241 9.574 7.351 17.788 16.795 19.386V46.7H33v-2.015c9.443-1.619 16.554-9.831 16.794-19.385zM13.4 24.8c0-8.988 7.312-16.3 16.3-16.3S46 15.812 46 24.8s-7.312 16.3-16.3 16.3c-8.987 0-16.3-7.312-16.3-16.3zm63.401 64.399A2.303 2.303 0 0 1 74.5 91.5H29.7a2.302 2.302 0 0 1-2.3-2.301V52.8c0-1.269 1.031-2.3 2.3-2.3h44.8a2.302 2.302 0 0 1 2.301 2.3v36.399zm7-20.099H80.6v-7.4h3.201v7.4zm7 2.8H87.6v-13h3.201v13zM74.5 33.7c4.907 0 8.9-3.993 8.9-8.9s-3.993-8.9-8.9-8.9-8.9 3.993-8.9 8.9 3.993 8.9 8.9 8.9zm0-14c2.812 0 5.1 2.288 5.1 5.1s-2.288 5.1-5.1 5.1-5.1-2.288-5.1-5.1 2.288-5.1 5.1-5.1zm-35 64.8h-5.6c-1.119 0-1.9.781-1.9 1.9 0 1.118.781 1.899 1.9 1.899h5.6c1.119 0 1.9-.781 1.9-1.899 0-1.119-.781-1.9-1.9-1.9zm21-18.2c-1.819 0-3.3 1.48-3.3 3.3 0 1.82 1.48 3.301 3.3 3.301 1.82 0 3.301-1.48 3.301-3.301 0-1.82-1.481-3.3-3.301-3.3zm11.201-11.2c-1.119 0-1.9.781-1.9 1.9s.781 1.9 1.9 1.9c1.118 0 1.898-.781 1.898-1.9s-.78-1.9-1.898-1.9zm-21 0H35.3c-1.819 0-3.3 1.48-3.3 3.301V78c0 1.819 1.48 3.3 3.3 3.3h15.401A3.303 3.303 0 0 0 54 78V58.4c0-1.82-1.479-3.3-3.299-3.3zm-.5 22.4H35.8V58.9h14.401v18.6zM60.5 55.1c-1.819 0-3.3 1.48-3.3 3.301 0 1.819 1.48 3.3 3.3 3.3 1.82 0 3.301-1.48 3.301-3.3A3.304 3.304 0 0 0 60.5 55.1zM38.601 24.8c0-4.907-3.993-8.9-8.9-8.9s-8.899 3.993-8.899 8.9 3.992 8.9 8.899 8.9 8.9-3.992 8.9-8.9zm-14 0c0-2.812 2.288-5.1 5.1-5.1s5.1 2.288 5.1 5.1-2.287 5.1-5.1 5.1a5.106 5.106 0 0 1-5.1-5.1z"/></svg>