<svg xmlns="http://www.w3.org/2000/svg" viewBox="0 0 48 60"><g fill="none" stroke="#000" stroke-width="2" stroke-linecap="round" stroke-linejoin="round" stroke-miterlimit="10"><path d="M35.518 27.146s3.629-6.78 4.801-9.22l-1.237-1.117-1.248-1.127-.485-.438-1.596-1.44-.891-.804c-2.457 1.278-9.265 5.191-9.265 5.191.922 4.607-.294 8.106-1.06 9.729-.712-.446-1.672-.357-2.274.26a1.671 1.671 0 0 0 .08 2.426l.498.449a1.836 1.836 0 0 0 2.522-.076c.6-.616.634-1.545.124-2.2 1.637-.84 5.192-2.226 10.031-1.633zM47 12.708l-7.1-6.41-5.753 5.894 7.1 6.41z"/><ellipse cx="31.744" cy="21.168" rx="2.111" ry="2.031"/><path d="M41.541 18.302v19.604a3.81 3.81 0 0 1-3.797 3.797H4.796A3.81 3.81 0 0 1 1 37.905V12.027A3.807 3.807 0 0 1 4.796 8.23h32.948M7.007 14.167h18.24m-18.24 5.592h15.111M7.007 25.351h15.111M7.007 30.942h11.716M7.007 36.533h28.291"/></g></svg>