<svg xmlns="http://www.w3.org/2000/svg" viewBox="0 0 100 125"><style>.st0{fill:none;stroke:#000;stroke-width:4;stroke-miterlimit:10}</style><path d="M80 45c-3.4 0-6.3 2.3-7.2 5.4l-10.3-.8c-.1-4-1.7-7.6-4.4-10.2l8.4-10.3c1 .5 2.2.9 3.5.9 4.1 0 7.5-3.4 7.5-7.5S74.1 15 70 15s-7.5 3.4-7.5 7.5c0 1.8.6 3.4 1.7 4.7l-8.4 10.3c-2.4-1.6-5.2-2.5-8.3-2.5-2.7 0-5.3.7-7.4 2L29.5 22.2c1.9-1.8 3-4.4 3-7.2 0-5.5-4.5-10-10-10s-10 4.5-10 10 4.5 10 10 10c1.6 0 3.2-.4 4.5-1.1l10.6 14.8c-3.1 2.7-5.1 6.8-5.1 11.3 0 2.5.6 4.9 1.8 7l-13.6 9.1c-.9-.7-1.9-1.1-3.1-1.1-2.8 0-5 2.2-5 5s2.2 5 5 5 5-2.2 5-5c0-.5-.1-.9-.2-1.4L36 59.5c2.8 3.3 6.9 5.5 11.6 5.5 1.6 0 3.1-.2 4.5-.7l5.2 12.2c-2.8 1.8-4.7 4.9-4.7 8.5 0 5.5 4.5 10 10 10s10-4.5 10-10-4.5-10-10-10c-.9 0-1.7.1-2.5.3l-5.2-12.2c3.9-2.2 6.7-6 7.5-10.5l10.3.8C73 57.1 76.2 60 80 60c4.1 0 7.5-3.4 7.5-7.5S84.1 45 80 45z"/></svg>