<svg xmlns="http://www.w3.org/2000/svg" viewBox="0 0 100 125"><path d="M46.5 53.4c-1.9-1.9-1.9-5 0-6.9 1.9-1.9 5-1.9 6.9 0 1.9 1.9 1.9 5 0 6.9-1.9 2-5 1.9-6.9 0zM42.7 39c1.5-1 3.1-1.6 4.8-2v-2.5c0-.6.5-1.1 1.1-1.1h3c.6 0 1.1.5 1.1 1.1V37c1.7.3 3.3 1 4.8 2l1.8-1.7c.4-.4 1.1-.4 1.5 0l2.1 2.1c.4.4.4 1.1 0 1.5L61 42.7c1 1.5 1.6 3.1 2 4.8h2.5c.6 0 1.1.5 1.1 1.1v3c0 .6-.5 1.1-1.1 1.1H63c-.3 1.7-1 3.3-2 4.8l1.7 1.8c.4.4.4 1.1 0 1.5l-2.1 2.1c-.4.4-1.1.4-1.5 0L57.3 61c-1.5 1-3.1 1.6-4.8 2v2.5c0 .6-.5 1.1-1.1 1.1h-3c-.6 0-1.1-.5-1.1-1.1V63c-1.7-.3-3.3-1-4.8-2l-1.8 1.7c-.4.4-1.1.4-1.5 0l-2.1-2.1c-.4-.4-.4-1.1 0-1.5l1.8-1.7c-1-1.5-1.6-3.1-2-4.8h-2.5c-.6 0-1.1-.5-1.1-1.1v-3c0-.6.5-1.1 1.1-1.1h2.5c.3-1.7 1-3.3 2-4.8l-1.7-1.8c-.4-.4-.4-1.1 0-1.5l2.1-2.1c.4-.4 1.1-.4 1.5 0l1.9 1.8zm1.9 5.5c-3 3-3 7.9-.1 10.9 3 3 7.9 3 10.9.1 3-3 3-7.9.1-10.9-3-3-7.9-3.1-10.9-.1zm12.3-8.9h-2.1v-7.9c0-3 2.5-5.5 5.5-5.5H62c.5-1.8 2.1-3.2 4.1-3.2 2.3 0 4.2 1.9 4.2 4.2 0 2.3-1.9 4.2-4.2 4.2-2 0-3.6-1.4-4.1-3.2h-1.7c-1.9 0-3.5 1.6-3.5 3.5v7.9zM64 23.1c0 1.2 1 2.2 2.2 2.2s2.2-1 2.2-2.2c0-1.2-1-2.2-2.2-2.2s-2.2 1-2.2 2.2zm-15 8.2v-4.1c-1.8-.5-3.2-2.1-3.2-4.1 0-2.3 1.9-4.2 4.2-4.2 2.3 0 4.2 1.9 4.2 4.2 0 2-1.4 3.6-3.2 4.1v4.1h-2zm1-6c1.2 0 2.2-1 2.2-2.2 0-1.2-1-2.2-2.2-2.2s-2.2 1-2.2 2.2c0 1.2 1 2.2 2.2 2.2zm-4.9 2.3v7.9h-1.3c-.2 0-.5 0-.7.1v-8c0-1.9-1.6-3.5-3.5-3.5h-1.7c-.5 1.8-2.1 3.2-4.1 3.2-2.3 0-4.2-1.9-4.2-4.2 0-2.3 1.9-4.2 4.2-4.2 2 0 3.6 1.4 4.1 3.2h1.7c3 0 5.5 2.5 5.5 5.5zM36 23.1c0-1.2-1-2.2-2.2-2.2s-2.2 1-2.2 2.2c0 1.2 1 2.2 2.2 2.2s2.2-1 2.2-2.2zm7.5 41.4h1.6v7.9c0 3-2.5 5.5-5.5 5.5h-1.7c-.5 1.8-2.1 3.2-4.1 3.2-2.3 0-4.2-1.9-4.2-4.2 0-2.3 1.9-4.2 4.2-4.2 2 0 3.6 1.4 4.1 3.2h1.7c1.9 0 3.5-1.6 3.5-3.5v-8c.1.1.3.1.4.1zM36 76.9c0-1.2-1-2.2-2.2-2.2s-2.2 1-2.2 2.2c0 1.2 1 2.2 2.2 2.2s2.2-1 2.2-2.2zm18.2 0c0 2.3-1.9 4.2-4.2 4.2-2.3 0-4.2-1.9-4.2-4.2 0-2 1.4-3.6 3.2-4.1v-4.1h2v4.1c1.9.4 3.2 2.1 3.2 4.1zm-2 0c0-1.2-1-2.2-2.2-2.2s-2.2 1-2.2 2.2c0 1.2 1 2.2 2.2 2.2s2.2-1 2.2-2.2zm18.2 0c0 2.3-1.9 4.2-4.2 4.2-2 0-3.6-1.4-4.1-3.2h-1.7c-3 0-5.5-2.5-5.5-5.5v-7.9h1.3c.2 0 .5 0 .7-.1v8c0 1.9 1.6 3.5 3.5 3.5h1.7c.5-1.8 2.1-3.2 4.1-3.2 2.3 0 4.2 1.8 4.2 4.2zm-2 0c0-1.2-1-2.2-2.2-2.2s-2.2 1-2.2 2.2c0 1.2 1 2.2 2.2 2.2s2.2-1 2.2-2.2zM35.5 45.1h-7.9c-3 0-5.5-2.5-5.5-5.5v-1.7c-1.8-.5-3.2-2.1-3.2-4.1 0-2.3 1.9-4.2 4.2-4.2 2.3 0 4.2 1.9 4.2 4.2 0 2-1.4 3.6-3.2 4.1v1.7c0 1.9 1.6 3.5 3.5 3.5h8v2zM25.3 33.8c0-1.2-1-2.2-2.2-2.2s-2.2 1-2.2 2.2c0 1.2 1 2.2 2.2 2.2s2.2-1 2.2-2.2zM27.2 49h4.1v2h-4.1c-.5 1.8-2.1 3.2-4.1 3.2-2.3 0-4.2-1.9-4.2-4.2 0-2.3 1.9-4.2 4.2-4.2 2 0 3.7 1.4 4.1 3.2zm-1.9 1c0-1.2-1-2.2-2.2-2.2s-2.2 1-2.2 2.2c0 1.2 1 2.2 2.2 2.2s2.2-1 2.2-2.2zm-1.2 10.4v1.7c1.8.5 3.2 2.1 3.2 4.1 0 2.3-1.9 4.2-4.2 4.2-2.3 0-4.2-1.9-4.2-4.2 0-2 1.4-3.6 3.2-4.1v-1.7c0-3 2.5-5.5 5.5-5.5h7.9v1.3c0 .2 0 .5.1.7h-8c-1.9 0-3.5 1.6-3.5 3.5zm-1 3.6c-1.2 0-2.2 1-2.2 2.2s1 2.2 2.2 2.2 2.2-1 2.2-2.2-1-2.2-2.2-2.2zm58 2.2c0 2.3-1.9 4.2-4.2 4.2-2.3 0-4.2-1.9-4.2-4.2 0-2 1.4-3.6 3.2-4.1v-1.7c0-1.9-1.6-3.5-3.5-3.5h-8v-2.1h7.9c3 0 5.5 2.5 5.5 5.5V62c1.9.5 3.3 2.2 3.3 4.2zm-2 0c0-1.2-1-2.2-2.2-2.2s-2.2 1-2.2 2.2 1 2.2 2.2 2.2 2.2-1 2.2-2.2zm2-16.2c0 2.3-1.9 4.2-4.2 4.2-2 0-3.6-1.4-4.1-3.2h-4.1v-2h4.1c.5-1.8 2.1-3.2 4.1-3.2 2.3 0 4.2 1.9 4.2 4.2zm-2 0c0-1.2-1-2.2-2.2-2.2s-2.2 1-2.2 2.2c0 1.2 1 2.2 2.2 2.2s2.2-1 2.2-2.2zm2-16.2c0 2-1.4 3.6-3.2 4.1v1.7c0 3-2.5 5.5-5.5 5.5h-7.9v-1.3c0-.2 0-.5-.1-.7h8c1.9 0 3.5-1.6 3.5-3.5v-1.7c-1.8-.5-3.2-2.1-3.2-4.1 0-2.3 1.9-4.2 4.2-4.2 2.3 0 4.2 1.9 4.2 4.2zm-2 0c0-1.2-1-2.2-2.2-2.2s-2.2 1-2.2 2.2c0 1.2 1 2.2 2.2 2.2s2.2-1 2.2-2.2z"/></svg>