<svg xmlns="http://www.w3.org/2000/svg" viewBox="0 0 60 67.5"><title>29 - Headphones (Solid)</title><path d="M54 32v-5h1v-2.614c0-5.639-2.104-11.077-5.905-15.408.066-.247.111-.5.111-.76a2.874 2.874 0 0 0-.938-2.115C43.845 2.097 35.73 0 30 0c-5.731 0-13.845 2.097-18.268 6.103a2.874 2.874 0 0 0-.938 2.115c0 .104.021.205.032.308C7.075 12.865 5 18.469 5 24.386V27h1v5c-3.309 0-6 2.691-6 6v10c0 3.309 2.691 6 6 6h5.514A4.492 4.492 0 0 0 16 49.514V36.787c0-2.37-1.736-4.329-4-4.707V27h1v-2.614c0-3.814 1.366-7.576 3.744-10.421a2.955 2.955 0 0 0 1.977-.698C20.977 11.313 26.374 10 30 10c3.626 0 9.023 1.313 11.279 3.267.424.366.938.598 1.481.683C45.452 16.855 47 20.633 47 24.386V27h1v5.08c-2.264.378-4 2.337-4 4.707v12.727A4.492 4.492 0 0 0 48.486 54H54c3.309 0 6-2.691 6-6V38c0-3.309-2.691-6-6-6zm-40.127 4H12a1 1 0 1 0 0 2h2v2h-2a1 1 0 1 0 0 2h2v2h-2a1 1 0 1 0 0 2h2v2h-2a1 1 0 1 0 0 2h1.951a2.49 2.49 0 0 1-2.437 2H7V34h4.213c1.262 0 2.318.848 2.66 2zM11 24.386V25H7v-.614c0-5.156 1.699-10.058 4.807-13.941l2.978 2.737C12.336 16.335 11 20.269 11 24.386zm33.953-10.982a2.86 2.86 0 0 0 .207-.172l2.783-2.557C51.212 14.574 53 19.402 53 24.386V25h-4v-.614c0-3.905-1.46-7.833-4.047-10.982zM53 52h-4.514a2.49 2.49 0 0 1-2.437-2H48a1 1 0 1 0 0-2h-2v-2h2a1 1 0 1 0 0-2h-2v-2h2a1 1 0 1 0 0-2h-2v-2h2a1 1 0 1 0 0-2h-1.873a2.781 2.781 0 0 1 2.66-2H53v18z" fill-rule="evenodd"/></svg>