<svg xmlns="http://www.w3.org/2000/svg" viewBox="0 0 100 125"><path d="M98.3 75.8H82.5l-1.6-7.2c3.2-4.4-.2-4.6-.8-4.6-.6 0-4 .2-.8 4.6l-1.6 7.2h-6.1V62.2c1.1-.6 1.9-1 2.3-1.2.1-.1.2-.2.2-.3v-7.2c-.9-.6-1.5-1.6-1.5-2.8v-7.5c0-3.7 3-6.8 6.8-6.8H81c3.7 0 6.8 3 6.8 6.8v7.5c0 1.2-.6 2.2-1.5 2.8v7.2c0 .1.1.2.2.3 1 .5 6 3 10.7 6.9.8.7 1.3 1.7 1.3 2.8v5.1zM67 55.7c-4.7-3.8-9.7-6.4-10.7-6.9-.1 0-.1-.1-.2-.2v-7.3c.9-.6 1.5-1.6 1.5-2.8V31c0-3.8-3-6.8-6.8-6.8h-1.6c-3.8 0-6.8 3-6.8 6.8v7.5c0 1.2.6 2.2 1.5 2.8v7.3c0 .1-.1.2-.2.2-1 .5-6 3-10.7 6.9-.3.3-.6.6-.8 1-.4.6-.5 1.2-.5 1.9v17.2h15.1l2.4-19.2v-.1c-1-1.4-1.3-2.3-1.3-3 .1-1.4 1.8-1.5 2.2-1.5.4 0 2.1.1 2.2 1.5 0 .7-.3 1.6-1.3 3v.1l2.4 19.2h15.1V58.6c0-.7-.2-1.3-.5-1.9l-1-1zM19.1 68.6c-3.2-4.4.2-4.6.8-4.6.6 0 4 .2.8 4.6l1.6 7.2h6.1V62.2c-1.1-.6-1.9-1-2.3-1.2-.1-.1-.2-.2-.2-.3v-7.2c.9-.6 1.5-1.6 1.5-2.8v-7.5c0-3.7-3-6.8-6.8-6.8H19c-3.7 0-6.8 3-6.8 6.8v7.5c0 1.2.6 2.2 1.5 2.8v7.2c0 .1-.1.2-.2.3-1 .5-6 3-10.7 6.9-.8.7-1.3 1.7-1.3 2.8v5.2h15.9l1.7-7.3z"/></svg>