<svg xmlns="http://www.w3.org/2000/svg" viewBox="0 0 90 112.5"><path d="M25.631 26.004a3.278 3.278 0 0 1 0 4.637l-17.99 17.99a3.278 3.278 0 0 1-4.637 0l-.313-.313a3.28 3.28 0 0 1 0-4.637L20.682 25.69a3.28 3.28 0 0 1 4.637 0l.312.314z"/><path d="M25.631 61.359a3.278 3.278 0 0 1 0 4.637l-.313.313a3.278 3.278 0 0 1-4.637 0L2.691 48.318a3.28 3.28 0 0 1 0-4.637l.313-.313a3.278 3.278 0 0 1 4.637 0l17.99 17.991zm39.06-35.355a3.278 3.278 0 0 0 0 4.637l17.99 17.99a3.278 3.278 0 0 0 4.637 0l.313-.313a3.278 3.278 0 0 0 0-4.637L69.641 25.69a3.28 3.28 0 0 0-4.637 0l-.313.314z"/><path d="M64.691 61.359a3.278 3.278 0 0 0 0 4.637l.313.313a3.278 3.278 0 0 0 4.637 0l17.99-17.99a3.278 3.278 0 0 0 0-4.637l-.313-.313a3.278 3.278 0 0 0-4.637 0l-17.99 17.99z"/><circle cx="49.919" cy="36.648" r="3.601"/><path d="M57.314 35h-3.146c.301 0 .475 1.263.475 2s-.174 1-.475 2h3.146c1.134 0 2.053-.866 2.053-2s-.919-2-2.053-2zm-12.119 2c0-.737.173-2 .474-2H32.686c-1.133 0-2.052.866-2.052 2s.919 2 2.052 2h12.983c-.301-1-.474-1.263-.474-2z"/><circle cx="38.425" cy="46.5" r="3.601"/><path d="M33.702 46.5c0-.737.173-1.5.474-2.5h-1.49c-1.133 0-2.052 1.366-2.052 2.5s.919 2.5 2.052 2.5h1.49c-.301-1-.474-1.764-.474-2.5zM57.314 44h-14.64c.3 1 .474 1.763.474 2.5 0 .736-.174 1.5-.474 2.5h14.64c1.134 0 2.053-1.366 2.053-2.5s-.919-2.5-2.053-2.5z"/><circle cx="53.202" cy="56.352" r="3.601"/><path d="M48.479 56c0-.736.173-1 .475-2H32.686c-1.133 0-2.052.867-2.052 2 0 1.135.919 2 2.052 2h16.268c-.302 0-.475-1.264-.475-2zm8.98-1.687c.296.618.467 1.307.467 2.038s-.171 1.42-.467 2.038c1.064-.075 1.908-.954 1.908-2.038s-.844-1.962-1.908-2.038z"/></svg>