<svg xmlns="http://www.w3.org/2000/svg" viewBox="0 0 12 15"><path d="M9.193 4.26c-.064-.147-.378-.204-.605-.049L5.673 6.197 2.839 4.215a.502.502 0 1 0-.576.822L5.38 7.22a.505.505 0 0 0 .571.004L9.153 5.04c.23-.156.289-.469.04-.782zm2.733 4.471c.06.063.074-.002.074-.07a.51.51 0 0 0-.148-.356l-1.558-1.558a.501.501 0 1 0-.711.71l.7.777H7.442c-.277 0-.502.15-.502.427 0 .278.225.567.502.567h2.843l-.701.637a.501.501 0 1 0 .71.71l1.559-1.557c.047-.047.083-.101.074-.287z"/><path d="M4.97 9.228H2.155c-.593 0-1.162-.547-1.162-1.141v-4.74c0-.594.569-1.076 1.162-1.076h7.11c.593 0 1.17.482 1.17 1.076v1.185c0 .278.132.503.41.503.278 0 .583-.225.583-.503V3.347c0-1.149-1.014-2.07-2.163-2.07h-7.11C1.008 1.278 0 2.199 0 3.348v4.74c0 1.149 1.008 2.135 2.156 2.135h2.792c.278 0 .503-.278.503-.555 0-.278-.225-.439-.482-.439z"/></svg>